<?xml version="1.0" encoding="utf-8"?>
<!-- Generator: Adobe Illustrator 26.2.1, SVG Export Plug-In . SVG Version: 6.00 Build 0)  -->
<svg version="1.1" id="Layer_1" xmlns="http://www.w3.org/2000/svg" xmlns:xlink="http://www.w3.org/1999/xlink" x="0px" y="0px"
	 width="417.8px" height="203.1px" viewBox="0 0 417.8 203.1" style="enable-background:new 0 0 417.8 203.1;" xml:space="preserve"
	>
<style type="text/css">
	.st0{fill:none;stroke:#000000;stroke-miterlimit:10;}
	.st1{fill:none;stroke:#000000;stroke-width:2;stroke-miterlimit:10;}
	.st2{fill:none;stroke:#000000;stroke-width:2;stroke-linecap:round;stroke-linejoin:round;stroke-miterlimit:10;}
	.st3{fill:none;}
	.st4{fill:#0073E6;}
	.st5{font-family:'ProximaNova-Regular';}
	.st6{font-size:16px;}
</style>
<g id="Layer_1_00000158718731363733131520000000989011857991604925_">
</g>
<g id="Layer_2_00000070838072077296158490000002845076278522345863_">
	<line class="st0" x1="0.5" y1="16.2" x2="400.7" y2="16.2"/>
	<line class="st0" x1="0.5" y1="53.7" x2="400.7" y2="53.7"/>
	<line class="st0" x1="0.5" y1="91.3" x2="400.7" y2="91.3"/>
	<line class="st1" x1="0.5" y1="109.5" x2="400.7" y2="109.5"/>
	<line class="st0" x1="0.5" y1="128.5" x2="400.7" y2="128.5"/>
	<line class="st0" x1="0.5" y1="165.6" x2="400.7" y2="165.6"/>
	<line class="st0" x1="0.5" y1="202.6" x2="400.7" y2="202.6"/>
	<path class="st2" d="M1,72.8C1.3,72.1,2.1,72,2.8,72c1,0,2.1-0.1,3.1-0.1C7,72.7,8.6,71.7,10,72c0.6,0.1,1.2,0.5,1.8,0.8
		c0.6,0.2,1.4,0.2,1.8-0.3c0.2-0.2,0.3-0.5,0.5-0.6c0.3-0.2,0.8,0,1.2-0.1c0.4-0.2,0.6-0.7,1-0.8c0.6,0,0.7,0.9,1.2,1.1
		c0.5,0.2,0.9-0.2,1.2-0.7c0.3-0.4,0.5-0.9,0.9-1.1c1.1-0.4,1.9,1.6,3.1,1.4c0.3,0,0.5-0.2,0.7-0.3c0.6-0.3,1.4-0.2,2,0.1
		c1.9-1.1,4.5-1,6.3,0.2c0.2-0.8,0.6-1.7,1.5-1.8c1.1-0.1,1.6,1.6,2.6,1.9c0.3-0.5,0.7-1,1.2-1.3c0.3,0.8,1.4,1.1,2,0.5
		c0.5,0.5,1.1,1,1.7,0.7c0.6-0.3,0.8-1.1,1.4-1.3c0.5,0.5,0.9,1,1.4,1.5c0.1,0.1,0.2,0.2,0.4,0.2c0.1,0,0.2-0.1,0.3-0.2
		c0.7-0.7,1.8-0.9,2.7-0.5c0.7,0.2,1.2,0.8,1.5,1.4c0.1,0.3,0.5,0.3,0.7,0c0.4-0.6,1-1.2,1.6-1.6c0.9-0.5,2.2-0.5,2.9,0.2
		c0.1,0.1,0.2,0.2,0.3,0.2s0.2-0.2,0.1-0.2c1.1,0.1,2.1,0.1,3.2,0.1c0.3,0,0.6,0,0.9-0.1c0.6,0,1.2-0.1,1.8-0.1c2.4-0.2,5.2-0.6,7,1
		c0.2,0.1,0.3,0.3,0.5,0.3s0.3,0,0.5-0.1c1.3-0.6,2.6-1.1,3.9-1.7c0.2-0.1,0.5-0.2,0.8-0.2s0.5,0.1,0.7,0.2c1.1,0.6,2.3,1.5,3.4,0.9
		c0.4-0.2,0.7-0.7,1.1-0.8c0.7-0.2,1.4,0.5,2.2,0.6c1,0.1,1.8-0.8,2.8-0.7c0.7,0.1,1.3,0.6,1.9,0.5c0.3,0,0.6-0.2,0.9-0.4
		c1.4-0.8,3.3-0.7,4.7,0.2c0.2-0.5,0.7-0.9,1.3-1c1.4-0.2,2.9,1.2,4,0.4c0.3-0.2,0.5-0.5,0.9-0.5c0.3,0,0.5,0.2,0.7,0.4
		c1,0.8,2.5,0.8,3.5,0.1c0.2-0.1,0.3-0.3,0.5-0.3c0.4,0,0.6,0.4,0.9,0.7c0.8,0.9,2.4,0.9,3.1-0.1c0.2-0.3,0.5-0.6,0.8-0.5
		s0.3,0.6,0.5,0.9c0.1,0.1,0.3,0.2,0.4,0.1c0.1-0.1-0.3-0.2-0.2-0.1c0.7,0.8,2.2,0.4,3-0.3c0.3-0.2,0.5-0.5,0.8-0.7
		c0.4-0.1,0.8-0.1,1.2,0.1c1.1,0.3,2.3,0.8,3.3,1.4c0.6,0.4,1.3,0.8,1.9,0.5c0.5-0.3,0.7-0.9,1.2-1.2c0.7-0.3,1.4,0.2,2.1,0.6
		C121,72,122,72.2,123,72c0.8-0.1,1.6-0.5,2.3-0.3c0.8,0.2,1.5,0.9,2.3,1c1.7,0.2,3-1.9,4.7-1.5c0.6,0.1,1,0.6,1.5,0.9
		c0.5,0.3,1.1,0.6,1.6,0.3c0.6-0.3,0.8-1.2,1.5-1.3c0.9-0.2,1.7,1.2,2.5,0.7c0.1-0.1,0.2-0.2,0.4-0.3c0.6-0.5,1.4,0.3,2,0.7
		c1.1,0.7,2.9,0.2,3.4-1c0.2,0.9,1.3,1.4,2.3,1.3s1.8-0.6,2.7-1s1.9-0.7,2.8-0.4c0.8,0.3,1.5,1,2.3,0.9c0.5-0.1,0.9-0.5,1.4-0.7
		c0.9-0.4,2.1-0.2,2.8,0.6c1.2,1.4,3.5-0.7,5.3-0.7c0.7,0,1.4,0.3,2.1,0.4c0.5,0.1,1.1,0,1.6,0c1.9-0.1,3.9-0.2,5.8-0.3
		c0.5,0,1.1-0.1,1.6-0.3c0.3-0.1,0.6-0.3,0.8-0.4c1.4-0.4,2.7,1.2,4.1,1c1.1-0.2,2-1.5,3.1-1.2c0.5,0.1,0.9,0.6,1.4,0.8
		c1.2,0.5,2.6-0.9,3.8-0.4c0.3,0.1,0.5,0.3,0.8,0.4c0.5,0.1,1-0.2,1.6-0.3c1.3-0.2,2.4,1.2,3.7,0.9c0.5-0.1,0.9-0.5,1.5-0.6
		c0.4-0.1,0.8,0,1.1,0.2c1,0.3,2,0.6,3,0.9c0.3,0.1,0.5,0.2,0.8,0.1c0.8,0,1.3-0.8,1.7-1.5c0.8,0.9,2.4,1.1,3.4,0.5
		c0.3-0.2,0.6-0.5,1-0.5c0.3,0,0.6,0.1,0.9,0.2c0.9,0.4,1.8,0.8,2.7,1.2c0.3,0.2,0.7,0.3,1.1,0.3c0.6,0,1.2-0.3,1.5-0.9
		c0.1-0.1,0.1-0.2,0.2-0.3c0.2-0.1,0.4,0.2,0.6,0.5c0.3,0.4,0.8,0.6,1.3,0.5c1.6-0.5,3.3-0.3,4.8-1.1c0.3-0.1,0.6-0.3,0.9-0.4
		c1.3-0.4,2.5,1.1,3.9,1.1s2.7-1.6,4-1c0.3,0.1,0.5,0.3,0.8,0.4c0.8,0.3,1.7-0.6,2.6-0.4c0.6,0.1,1.1,0.6,1.7,0.4
		c0.5-0.2,0.7-0.8,1.1-1.1c1.1-0.7,2.5,1.5,3.6,0.7c0.2-0.2,0.4-0.4,0.5-0.7c0.7-0.9,2.1-0.6,3.1-0.2c1,0.4,2.2,1,3.2,0.5
		c0.4-0.2,0.6-0.5,1-0.7c0.7-0.4,1.6-0.4,2.3,0c0.5,0.3,1,0.9,1.6,0.9c0.8,0,1.4-0.8,2.2-0.8c0.6,0,1,0.6,1.5,0.9
		c0.8,0.6,1.9,0.7,2.8,0.3c0.8-0.3,1.7-0.9,2.3-0.4c0.2,0.2,0.3,0.5,0.6,0.6c0.3,0.1,0.6-0.2,0.8-0.4c0.6-0.5,1.7-0.5,2.3,0.1
		c0.2,0.2,0.4,0.5,0.7,0.5c0.4,0.1,0.8-0.2,1.1-0.5c0.8-0.6,2-0.9,3-0.5c-0.3-0.4,0.5-0.8,1-0.6s0.9,0.7,1.4,0.6
		c0.7-0.1,1-1.1,1.7-1c0.2,0,0.4,0.2,0.5,0.3c0.5,0.5,0.8,1.3,1.3,1.8s1.6,0.6,1.9-0.1c0.2-0.5,0.8-0.9,1.2-0.5
		c0.1,0.1,0.2,0.3,0.4,0.3c0.3,0.1,0.6-0.3,0.8-0.6c0.7-0.9,2.2-1,3-0.3c0.2,0.2,0.4,0.5,0.7,0.6c0.7,0.2,1.3-0.6,1.4-1.2
		c1.1-0.3,2.2,0.6,3.3,0.4c0.7-0.1,1.3-0.7,2.1-0.7c0.4,0,0.8,0.2,1.2,0.4c0.8,0.3,1.6,0.4,2.3,0c0.2-0.1,0.4-0.2,0.7-0.3
		c0.4,0,0.7,0.3,1,0.6c0.7,0.6,1.8,0.9,2.5,0.4c0.3-0.2,0.5-0.6,0.9-0.8c0.7-0.5,1.6-0.2,2.4,0.1s1.8,0.5,2.4-0.1
		c0.2-0.2,0.4-0.5,0.7-0.6c0.4-0.2,0.8,0.1,1.2,0.3c1,0.6,2.3,0.9,3.5,0.7c0.2,0,0.4-0.1,0.6-0.2c0.1-0.1,0.2-0.3,0.3-0.4
		c0.4-0.4,1.1,0,1.7,0.3c0.1,0.1,0.3,0.2,0.4,0.1c0.3,0,0.4-0.3,0.6-0.5c0.4-0.3,1-0.1,1.4,0.2s0.9,0.6,1.4,0.4
		c0.5-0.2,1.1,0.1,1.6,0.1c1,0,2,0.1,2.9,0.4c0.7,0.3,1.5,0.8,2.2,0.5c0.2-0.1,0.4-0.3,0.6-0.4c0.7-0.3,1.4-0.1,2.2,0
		c1.9,0.1,3.7-1.2,5.5-0.5c0.3,0.1,0.6,0.3,1,0.3c0.2,0,0.4-0.1,0.6-0.1c1.7-0.5,3.3,1.8,5,1.3c0.5-0.2,1-0.6,1.5-0.7
		c1-0.2,1.9,0.9,2.9,0.7c0.8-0.2,1.3-1.1,2.1-1.3c0.8-0.2,1.6,0.3,2.4,0.2c0.5-0.1,0.8-0.4,1.2-0.6c1.1-0.6,2.4-0.9,3.6-0.7
		c0.8,0.2,1.6,0.5,2.5,0.5c1.9,0,3.4-1.8,5.2-2c2.6-0.2,4.9,3,7.4,2.3c0.6-0.2,1.2,0.1,1.8,0c0.3-0.1,0.6-0.2,0.9-0.4
		c0.7-0.3,1.6-0.4,2.4-0.4c1-0.1,2-0.1,2.9-0.2c0.3,0,0.7,0,0.9,0.2c0.2,0.2,0.2,0.4,0.4,0.6c0.4,0.4,1,0.3,1.5,0
		c0.5-0.2,1.1-0.5,1.6-0.2c0.3,0.2,0.4,0.6,0.7,0.9c0.4,0.4,1,0.5,1.6,0.4c1.1-0.1,2.1-0.5,3-1.1c0.2-0.2,0.5-0.3,0.7-0.4
		c0.6-0.2,1.3,0.2,2,0.2c0.8,0,1.5-0.7,2.3-0.8s1.5,0.4,2.2,0.3c0.5-0.1,1-0.4,1.5-0.3c0.3,0.1,0.6,0.3,1,0.3
		c0.3-0.1,0.5-0.4,0.8-0.6c0.6-0.5,1.4-0.4,2.1-0.2s1.4,0.5,2.2,0.3c0.6-0.2,1-0.6,1.6-0.7c0.8-0.1,1.5,0.6,2.3,0.4"/>
	<g>
		<path d="M274.1,14.7v-2.4h3.7V3l-3.2,1.8l-0.9-2.2l4.6-2.4h2.3v12.2h3.2v2.4h-9.7V14.7z"/>
		<path d="M296.9,7.4c0,1.2-0.1,2.3-0.4,3.2s-0.6,1.7-1.1,2.4c-0.5,0.6-1.1,1.1-1.8,1.5c-0.7,0.3-1.5,0.5-2.5,0.5
			c-0.8,0-1.5-0.1-2.2-0.4c-0.7-0.3-1.3-0.7-1.7-1.3s-0.9-1.4-1.1-2.3c-0.3-0.9-0.4-2.1-0.4-3.4c0-1.2,0.1-2.3,0.4-3.2
			s0.6-1.7,1.1-2.4c0.5-0.6,1.1-1.1,1.8-1.5c0.7-0.3,1.5-0.5,2.5-0.5c0.8,0,1.5,0.1,2.2,0.4c0.7,0.3,1.3,0.7,1.7,1.3
			c0.5,0.6,0.9,1.4,1.1,2.3C296.8,5,296.9,6.1,296.9,7.4z M288.3,7.5c0,0.1,0,0.3,0,0.4c0,0.1,0,0.3,0,0.4l5.5-3.9
			c-0.3-0.7-0.6-1.3-1-1.6c-0.4-0.4-0.9-0.5-1.5-0.5c-0.4,0-0.8,0.1-1.2,0.3c-0.4,0.2-0.7,0.5-0.9,1c-0.3,0.4-0.5,1-0.6,1.6
			C288.4,5.8,288.3,6.5,288.3,7.5z M294.2,7.5c0-0.1,0-0.3,0-0.4c0-0.1,0-0.3,0-0.4l-5.4,3.9c0.2,0.7,0.6,1.3,1,1.6s0.9,0.5,1.5,0.5
			c0.4,0,0.8-0.1,1.2-0.3c0.4-0.2,0.7-0.5,0.9-1c0.3-0.4,0.5-1,0.6-1.6C294.1,9.2,294.2,8.4,294.2,7.5z"/>
		<path d="M309.4,7.4c0,1.2-0.1,2.3-0.4,3.2s-0.6,1.7-1.1,2.4c-0.5,0.6-1.1,1.1-1.8,1.5c-0.7,0.3-1.5,0.5-2.5,0.5
			c-0.8,0-1.5-0.1-2.2-0.4c-0.7-0.3-1.3-0.7-1.7-1.3s-0.9-1.4-1.1-2.3c-0.3-0.9-0.4-2.1-0.4-3.4c0-1.2,0.1-2.3,0.4-3.2
			s0.6-1.7,1.1-2.4c0.5-0.6,1.1-1.1,1.8-1.5C302.2,0.2,303,0,304,0c0.8,0,1.5,0.1,2.2,0.4c0.7,0.3,1.3,0.7,1.7,1.3
			c0.5,0.6,0.9,1.4,1.1,2.3C309.3,5,309.4,6.1,309.4,7.4z M300.8,7.5c0,0.1,0,0.3,0,0.4c0,0.1,0,0.3,0,0.4l5.5-3.9
			c-0.3-0.7-0.6-1.3-1-1.6c-0.4-0.4-0.9-0.5-1.5-0.5c-0.4,0-0.8,0.1-1.2,0.3s-0.7,0.5-0.9,1c-0.3,0.4-0.5,1-0.6,1.6
			C300.9,5.8,300.8,6.5,300.8,7.5z M306.7,7.5c0-0.1,0-0.3,0-0.4c0-0.1,0-0.3,0-0.4l-5.4,3.9c0.2,0.7,0.6,1.3,1,1.6s0.9,0.5,1.5,0.5
			c0.4,0,0.8-0.1,1.2-0.3c0.4-0.2,0.7-0.5,0.9-1c0.3-0.4,0.5-1,0.6-1.6C306.6,9.2,306.7,8.4,306.7,7.5z"/>
	</g>
	<g>
		<path d="M293.6,44.7c0.4,0.2,0.7,0.4,1,0.7c0.3,0.2,0.6,0.5,0.9,0.8c0.2,0.3,0.4,0.7,0.6,1.1c0.1,0.4,0.2,0.8,0.2,1.4
			c0,0.7-0.1,1.2-0.4,1.7s-0.6,0.9-1.1,1.3c-0.5,0.3-1,0.6-1.7,0.8c-0.6,0.2-1.3,0.3-2.1,0.3c-0.8,0-1.5-0.1-2.2-0.3
			c-0.6-0.2-1.2-0.4-1.6-0.7s-0.7-0.7-1-1.2c-0.2-0.5-0.3-1-0.3-1.5s0.1-0.9,0.2-1.3s0.3-0.7,0.6-1.1c0.3-0.3,0.5-0.6,0.9-0.9
			c0.3-0.3,0.7-0.5,1.1-0.7c-0.3-0.2-0.6-0.4-0.9-0.6c-0.3-0.2-0.6-0.5-0.8-0.8c-0.2-0.3-0.4-0.6-0.5-1s-0.2-0.8-0.2-1.2
			c0-0.5,0.1-1,0.3-1.5c0.2-0.5,0.5-0.9,0.9-1.2s0.9-0.6,1.5-0.8s1.3-0.3,2.2-0.3c0.8,0,1.4,0.1,2,0.2c0.6,0.2,1.1,0.4,1.5,0.7
			s0.7,0.7,0.9,1.1c0.2,0.4,0.3,0.9,0.3,1.4s-0.1,0.9-0.2,1.2c-0.1,0.4-0.3,0.7-0.5,1s-0.5,0.6-0.8,0.8
			C294.3,44.3,294,44.5,293.6,44.7z M290.9,46.1c-0.3,0.2-0.6,0.3-0.8,0.5c-0.3,0.2-0.5,0.4-0.7,0.6c-0.2,0.2-0.3,0.5-0.5,0.7
			c-0.1,0.3-0.2,0.5-0.2,0.9c0,0.6,0.2,1,0.7,1.3c0.4,0.3,1,0.4,1.7,0.4c0.3,0,0.6,0,0.9-0.1s0.5-0.2,0.8-0.3
			c0.2-0.1,0.4-0.3,0.5-0.5s0.2-0.5,0.2-0.8s-0.1-0.6-0.2-0.8s-0.3-0.5-0.6-0.7c-0.2-0.2-0.5-0.4-0.9-0.6
			C291.7,46.5,291.3,46.3,290.9,46.1z M291.5,43.7c0.3-0.1,0.5-0.3,0.8-0.5c0.2-0.2,0.4-0.4,0.6-0.6c0.2-0.2,0.3-0.4,0.4-0.7
			c0.1-0.2,0.2-0.5,0.2-0.8c0-0.5-0.2-0.8-0.6-1.1s-0.9-0.4-1.6-0.4s-1.2,0.1-1.6,0.4c-0.4,0.3-0.6,0.6-0.6,1.2
			c0,0.3,0.1,0.5,0.2,0.8c0.1,0.2,0.3,0.4,0.5,0.6c0.2,0.2,0.5,0.4,0.8,0.5C290.9,43.3,291.2,43.5,291.5,43.7z"/>
		<path d="M309.4,45.1c0,1.2-0.1,2.3-0.4,3.2s-0.6,1.7-1.1,2.4c-0.5,0.6-1.1,1.1-1.8,1.5c-0.7,0.3-1.5,0.5-2.5,0.5
			c-0.8,0-1.5-0.1-2.2-0.4c-0.7-0.3-1.3-0.7-1.7-1.3s-0.9-1.4-1.1-2.3c-0.3-0.9-0.4-2.1-0.4-3.4c0-1.2,0.1-2.3,0.4-3.2
			s0.6-1.7,1.1-2.4c0.5-0.6,1.1-1.1,1.8-1.5c0.7-0.3,1.5-0.5,2.5-0.5c0.8,0,1.5,0.1,2.2,0.4c0.7,0.3,1.3,0.7,1.7,1.3
			c0.5,0.6,0.9,1.4,1.1,2.3C309.3,42.6,309.4,43.7,309.4,45.1z M300.8,45.1c0,0.1,0,0.3,0,0.4c0,0.1,0,0.3,0,0.4l5.5-3.9
			c-0.3-0.7-0.6-1.3-1-1.6c-0.4-0.4-0.9-0.5-1.5-0.5c-0.4,0-0.8,0.1-1.2,0.3c-0.4,0.2-0.7,0.5-0.9,1s-0.5,1-0.6,1.6
			C300.9,43.4,300.8,44.2,300.8,45.1z M306.7,45.2c0-0.1,0-0.3,0-0.4c0-0.1,0-0.3,0-0.4l-5.4,3.9c0.2,0.7,0.6,1.3,1,1.6
			s0.9,0.5,1.5,0.5c0.4,0,0.8-0.1,1.2-0.3c0.4-0.2,0.7-0.5,0.9-1c0.3-0.4,0.5-1,0.6-1.6C306.6,46.8,306.7,46.1,306.7,45.2z"/>
	</g>
	<g>
		<path d="M320.3,70.7l-2-4.7c-0.2-0.4-0.5-0.8-0.8-1s-0.8-0.3-1.2-0.3h-0.5v6h-2.7V56.2h4.2c0.8,0,1.5,0.1,2.2,0.2
			c0.7,0.1,1.2,0.4,1.7,0.7s0.8,0.7,1.1,1.2c0.2,0.5,0.4,1.1,0.4,1.9c0,0.5-0.1,1-0.2,1.4c-0.2,0.4-0.4,0.8-0.7,1.1
			c-0.3,0.3-0.6,0.5-1,0.7s-0.8,0.3-1.3,0.4c0.4,0.1,0.7,0.3,1,0.6s0.6,0.8,0.9,1.4l2.3,4.9L320.3,70.7L320.3,70.7z M319.7,60.5
			c0-0.7-0.2-1.2-0.7-1.5s-1.1-0.5-2-0.5h-1.2v4.1h1.1c0.4,0,0.8,0,1.2-0.1c0.3-0.1,0.6-0.2,0.9-0.4c0.2-0.2,0.4-0.4,0.6-0.7
			C319.6,61.1,319.7,60.8,319.7,60.5z"/>
		<path d="M325.8,58.4v-2.2h9.2v2.2h-3.2v10h3.2v2.3h-9.2v-2.3h3.2v-10H325.8z"/>
		<path d="M338.1,70.7V56.2h4.7c1.7,0,2.9,0.3,3.7,0.9c0.8,0.6,1.2,1.5,1.2,2.6c0,0.4,0,0.7-0.1,1.1c-0.1,0.3-0.2,0.7-0.4,1
			c-0.2,0.3-0.4,0.5-0.7,0.8c-0.3,0.2-0.6,0.4-0.9,0.5c0.4,0.1,0.7,0.2,1,0.4s0.6,0.4,0.9,0.7c0.2,0.3,0.4,0.6,0.6,1
			c0.1,0.4,0.2,0.8,0.2,1.3c0,1.5-0.5,2.6-1.5,3.3s-2.4,1.1-4.3,1.1L338.1,70.7L338.1,70.7z M344.9,60.2c0-0.3,0-0.5-0.1-0.7
			s-0.2-0.4-0.4-0.6c-0.2-0.2-0.4-0.3-0.8-0.4c-0.3-0.1-0.7-0.1-1.1-0.1h-1.7v3.8h1.7c0.4,0,0.8-0.1,1.1-0.2
			c0.3-0.1,0.6-0.3,0.8-0.4c0.2-0.2,0.3-0.4,0.4-0.7C344.8,60.7,344.9,60.4,344.9,60.2z M342.7,68.5c0.4,0,0.8-0.1,1.2-0.2
			c0.3-0.1,0.6-0.3,0.8-0.5c0.2-0.2,0.4-0.4,0.5-0.7s0.2-0.6,0.2-0.9c0-0.6-0.2-1.1-0.7-1.5s-1.2-0.5-2.2-0.5h-1.7v4.2L342.7,68.5
			L342.7,68.5z"/>
		<path d="M350.6,70.7V56.2h4.7c1.7,0,2.9,0.3,3.7,0.9c0.8,0.6,1.2,1.5,1.2,2.6c0,0.4,0,0.7-0.1,1.1c-0.1,0.3-0.2,0.7-0.4,1
			c-0.2,0.3-0.4,0.5-0.7,0.8c-0.3,0.2-0.6,0.4-0.9,0.5c0.4,0.1,0.7,0.2,1,0.4s0.6,0.4,0.9,0.7c0.2,0.3,0.4,0.6,0.6,1
			c0.1,0.4,0.2,0.8,0.2,1.3c0,1.5-0.5,2.6-1.5,3.3s-2.4,1.1-4.3,1.1L350.6,70.7L350.6,70.7z M357.4,60.2c0-0.3,0-0.5-0.1-0.7
			s-0.2-0.4-0.4-0.6c-0.2-0.2-0.4-0.3-0.8-0.4c-0.3-0.1-0.7-0.1-1.1-0.1h-1.7v3.8h1.7c0.4,0,0.8-0.1,1.1-0.2
			c0.3-0.1,0.6-0.3,0.8-0.4c0.2-0.2,0.3-0.4,0.4-0.7C357.3,60.7,357.4,60.4,357.4,60.2z M355.2,68.5c0.4,0,0.8-0.1,1.2-0.2
			c0.3-0.1,0.6-0.3,0.8-0.5c0.2-0.2,0.4-0.4,0.5-0.7s0.2-0.6,0.2-0.9c0-0.6-0.2-1.1-0.7-1.5s-1.2-0.5-2.2-0.5h-1.7v4.2L355.2,68.5
			L355.2,68.5z"/>
		<path d="M373.8,63.4c0,1.3-0.2,2.5-0.5,3.4s-0.7,1.7-1.3,2.4c-0.5,0.6-1.2,1.1-1.9,1.4c-0.7,0.3-1.5,0.4-2.3,0.4
			c-1.9,0-3.4-0.6-4.3-1.9c-1-1.3-1.4-3.1-1.4-5.5c0-1.3,0.2-2.5,0.5-3.4c0.3-1,0.7-1.7,1.3-2.4c0.5-0.6,1.2-1.1,1.9-1.4
			c0.7-0.3,1.5-0.4,2.3-0.4c1.9,0,3.4,0.6,4.3,1.9C373.3,59.1,373.8,61,373.8,63.4z M370.9,63.5c0-1.7-0.2-3-0.7-3.8
			s-1.2-1.3-2.3-1.3c-0.5,0-1,0.1-1.3,0.3c-0.4,0.2-0.7,0.5-0.9,1c-0.2,0.4-0.4,0.9-0.5,1.6c-0.1,0.6-0.2,1.3-0.2,2.1
			c0,1.7,0.2,3,0.7,3.8s1.2,1.3,2.3,1.3c0.5,0,1-0.1,1.4-0.3s0.7-0.5,0.9-1c0.2-0.4,0.4-0.9,0.5-1.6C370.8,65,370.9,64.3,370.9,63.5
			z"/>
		<path d="M382.4,70.7l-3.9-8.7l-0.8-1.9v6v4.5h-2.5V56.1h3.4l4,8.7l0.7,1.7v-6.4v-4h2.5v14.5L382.4,70.7L382.4,70.7z"/>
	</g>
	<g>
		<path d="M296.6,85.3c0,0.7-0.1,1.4-0.4,2s-0.6,1.1-1.1,1.5s-1,0.8-1.7,1s-1.4,0.3-2.1,0.3c-1.7,0-3-0.5-3.9-1.6s-1.3-2.7-1.3-4.9
			c0-0.8,0-1.6,0.1-2.3s0.3-1.4,0.5-2s0.5-1.2,0.9-1.7s0.9-0.9,1.4-1.3c0.6-0.3,1.2-0.6,2-0.8s1.7-0.3,2.7-0.3h1.7v2.3h-1.9
			c-0.8,0-1.5,0.1-2,0.2c-0.5,0.2-1,0.4-1.3,0.7s-0.6,0.7-0.8,1.1c-0.2,0.4-0.3,0.9-0.3,1.5v0.3c0.4-0.2,0.8-0.3,1.3-0.5
			c0.5-0.1,1-0.2,1.6-0.2c0.8,0,1.5,0.1,2.1,0.3s1.1,0.5,1.5,0.9s0.7,0.9,0.9,1.4S296.6,84.6,296.6,85.3z M293.8,85.4
			c0-0.3,0-0.7-0.1-0.9c-0.1-0.3-0.2-0.5-0.4-0.7c-0.2-0.2-0.4-0.4-0.7-0.5c-0.3-0.1-0.6-0.2-1.1-0.2c-0.2,0-0.5,0-0.7,0.1
			c-0.2,0-0.5,0.1-0.7,0.2c-0.2,0.1-0.4,0.1-0.6,0.2c-0.2,0.1-0.4,0.2-0.5,0.3c0,0.7,0.1,1.4,0.2,1.9s0.3,0.9,0.5,1.3
			c0.2,0.3,0.5,0.6,0.8,0.7c0.3,0.1,0.7,0.2,1.1,0.2s0.7-0.1,1-0.2c0.3-0.1,0.5-0.3,0.7-0.5s0.4-0.5,0.5-0.8
			C293.8,86.1,293.8,85.8,293.8,85.4z"/>
		<path d="M309.4,82.6c0,1.2-0.1,2.3-0.4,3.2s-0.6,1.7-1.1,2.4c-0.5,0.6-1.1,1.1-1.8,1.5c-0.7,0.3-1.5,0.5-2.5,0.5
			c-0.8,0-1.5-0.1-2.2-0.4c-0.7-0.3-1.3-0.7-1.7-1.3s-0.9-1.4-1.1-2.3c-0.3-0.9-0.4-2.1-0.4-3.4c0-1.2,0.1-2.3,0.4-3.2
			s0.6-1.7,1.1-2.4c0.5-0.6,1.1-1.1,1.8-1.5c0.7-0.3,1.5-0.5,2.5-0.5c0.8,0,1.5,0.1,2.2,0.4c0.7,0.3,1.3,0.7,1.7,1.3
			c0.5,0.6,0.9,1.4,1.1,2.3C309.3,80.1,309.4,81.3,309.4,82.6z M300.8,82.6c0,0.1,0,0.3,0,0.4c0,0.1,0,0.3,0,0.4l5.5-3.9
			c-0.3-0.7-0.6-1.3-1-1.6c-0.4-0.4-0.9-0.5-1.5-0.5c-0.4,0-0.8,0.1-1.2,0.3c-0.4,0.2-0.7,0.5-0.9,1c-0.3,0.4-0.5,1-0.6,1.6
			C300.9,80.9,300.8,81.7,300.8,82.6z M306.7,82.7c0-0.1,0-0.3,0-0.4c0-0.1,0-0.3,0-0.4l-5.4,3.9c0.2,0.7,0.6,1.3,1,1.6
			s0.9,0.5,1.5,0.5c0.4,0,0.8-0.1,1.2-0.3c0.4-0.2,0.7-0.5,0.9-1c0.3-0.4,0.5-1,0.6-1.6C306.6,84.3,306.7,83.6,306.7,82.7z"/>
	</g>
	<g>
		<path d="M323.7,99.8c0,1.3-0.2,2.5-0.5,3.4c-0.3,1-0.7,1.7-1.3,2.4c-0.5,0.6-1.2,1.1-1.9,1.4c-0.7,0.3-1.5,0.4-2.3,0.4
			c-1.9,0-3.4-0.6-4.3-1.9c-1-1.3-1.4-3.1-1.4-5.5c0-1.3,0.2-2.5,0.5-3.4c0.3-1,0.7-1.7,1.3-2.4c0.5-0.6,1.2-1.1,1.9-1.4
			c0.7-0.3,1.5-0.4,2.3-0.4c1.9,0,3.4,0.6,4.3,1.9C323.2,95.6,323.7,97.4,323.7,99.8z M320.8,100c0-1.7-0.2-3-0.7-3.8
			s-1.2-1.3-2.3-1.3c-0.5,0-1,0.1-1.3,0.3c-0.4,0.2-0.7,0.5-0.9,1c-0.2,0.4-0.4,0.9-0.5,1.6c-0.1,0.6-0.2,1.3-0.2,2.1
			c0,1.7,0.2,3,0.7,3.8s1.2,1.3,2.3,1.3c0.5,0,1-0.1,1.4-0.3s0.7-0.5,0.9-1c0.2-0.4,0.4-0.9,0.5-1.6S320.8,100.8,320.8,100z"/>
		<path d="M335.7,101.8c0,0.9-0.1,1.7-0.4,2.4c-0.2,0.7-0.6,1.3-1.1,1.8s-1,0.8-1.7,1.1c-0.7,0.2-1.4,0.4-2.2,0.4
			c-0.9,0-1.7-0.1-2.4-0.4c-0.7-0.2-1.2-0.6-1.6-1s-0.7-1-0.9-1.6c-0.2-0.6-0.3-1.4-0.3-2.1v-9.6h2.7v9.5c0,0.5,0,0.9,0.1,1.3
			c0.1,0.4,0.2,0.7,0.4,1c0.2,0.3,0.5,0.5,0.8,0.6s0.7,0.2,1.2,0.2s0.8-0.1,1.1-0.2s0.6-0.3,0.8-0.6c0.2-0.3,0.4-0.6,0.5-1
			s0.2-0.9,0.2-1.5v-9.4h2.7L335.7,101.8L335.7,101.8z"/>
		<path d="M344.3,94.9v12.3h-2.8V94.9h-4v-2.3h10.8v2.3H344.3z"/>
	</g>
	<g>
		<path d="M294.8,124.2v3h-2.6v-3h-6.8v-2.3l5.7-9.3h3.7v9.2h2.2v2.4H294.8z M292.2,115.2l-4.1,6.6h4.1V115.2z"/>
		<path d="M309.4,119.8c0,1.2-0.1,2.3-0.4,3.2c-0.3,0.9-0.6,1.7-1.1,2.4c-0.5,0.6-1.1,1.1-1.8,1.5c-0.7,0.3-1.5,0.5-2.5,0.5
			c-0.8,0-1.5-0.1-2.2-0.4s-1.3-0.7-1.7-1.3s-0.9-1.4-1.1-2.3c-0.3-0.9-0.4-2.1-0.4-3.4c0-1.2,0.1-2.3,0.4-3.2
			c0.3-0.9,0.6-1.7,1.1-2.4c0.5-0.6,1.1-1.1,1.8-1.5c0.7-0.3,1.5-0.5,2.5-0.5c0.8,0,1.5,0.1,2.2,0.4c0.7,0.3,1.3,0.7,1.7,1.3
			c0.5,0.6,0.9,1.4,1.1,2.3C309.3,117.4,309.4,118.5,309.4,119.8z M300.8,119.8c0,0.1,0,0.3,0,0.4s0,0.3,0,0.4l5.5-3.9
			c-0.3-0.7-0.6-1.3-1-1.6c-0.4-0.4-0.9-0.5-1.5-0.5c-0.4,0-0.8,0.1-1.2,0.3c-0.4,0.2-0.7,0.5-0.9,1c-0.3,0.4-0.5,1-0.6,1.6
			C300.9,118.2,300.8,118.9,300.8,119.8z M306.7,119.9c0-0.1,0-0.3,0-0.4s0-0.3,0-0.4l-5.4,3.9c0.2,0.7,0.6,1.3,1,1.6
			c0.4,0.3,0.9,0.5,1.5,0.5c0.4,0,0.8-0.1,1.2-0.3c0.4-0.2,0.7-0.5,0.9-1c0.3-0.4,0.5-1,0.6-1.6
			C306.6,121.6,306.7,120.8,306.7,119.9z"/>
	</g>
	<g>
		<path d="M286.4,163.9v-2l3.4-3.4c0.6-0.6,1.2-1.2,1.6-1.7s0.7-0.9,0.9-1.3c0.2-0.4,0.3-0.7,0.4-1s0.1-0.6,0.1-1
			c0-0.3,0-0.5-0.1-0.8c-0.1-0.2-0.2-0.5-0.4-0.6c-0.2-0.2-0.4-0.3-0.6-0.4c-0.3-0.1-0.6-0.2-0.9-0.2c-0.6,0-1.1,0.1-1.6,0.4
			c-0.5,0.2-1,0.6-1.4,1l-1.4-1.8c0.6-0.6,1.3-1.1,2.1-1.4c0.8-0.4,1.6-0.5,2.6-0.5c0.7,0,1.4,0.1,1.9,0.3c0.6,0.2,1.1,0.5,1.5,0.8
			c0.4,0.4,0.7,0.8,1,1.3s0.3,1.1,0.3,1.8c0,0.6-0.1,1.1-0.2,1.6c-0.2,0.5-0.4,1-0.7,1.5c-0.3,0.5-0.7,0.9-1.1,1.4s-0.9,1-1.5,1.5
			l-2.1,2h6.1v2.5L286.4,163.9L286.4,163.9z"/>
		<path d="M309.4,156.6c0,1.2-0.1,2.3-0.4,3.2c-0.3,0.9-0.6,1.7-1.1,2.4c-0.5,0.6-1.1,1.1-1.8,1.5c-0.7,0.3-1.5,0.5-2.5,0.5
			c-0.8,0-1.5-0.1-2.2-0.4s-1.3-0.7-1.7-1.3s-0.9-1.4-1.1-2.3c-0.3-0.9-0.4-2.1-0.4-3.4c0-1.2,0.1-2.3,0.4-3.2
			c0.3-0.9,0.6-1.7,1.1-2.4c0.5-0.6,1.1-1.1,1.8-1.5c0.7-0.3,1.5-0.5,2.5-0.5c0.8,0,1.5,0.1,2.2,0.4s1.3,0.7,1.7,1.3
			c0.5,0.6,0.9,1.4,1.1,2.3C309.3,154.1,309.4,155.3,309.4,156.6z M300.8,156.6c0,0.1,0,0.3,0,0.4s0,0.3,0,0.4l5.5-3.9
			c-0.3-0.7-0.6-1.3-1-1.6c-0.4-0.4-0.9-0.5-1.5-0.5c-0.4,0-0.8,0.1-1.2,0.3c-0.4,0.2-0.7,0.5-0.9,1s-0.5,1-0.6,1.6
			C300.9,155,300.8,155.7,300.8,156.6z M306.7,156.7c0-0.1,0-0.3,0-0.4s0-0.3,0-0.4l-5.4,3.9c0.2,0.7,0.6,1.3,1,1.6
			c0.4,0.3,0.9,0.5,1.5,0.5c0.4,0,0.8-0.1,1.2-0.3c0.4-0.2,0.7-0.5,0.9-1c0.3-0.4,0.5-1,0.6-1.6
			C306.6,158.4,306.7,157.6,306.7,156.7z"/>
	</g>
	<g>
		<path d="M309.4,193.9c0,1.2-0.1,2.3-0.4,3.2c-0.3,0.9-0.6,1.7-1.1,2.4c-0.5,0.6-1.1,1.1-1.8,1.5c-0.7,0.3-1.5,0.5-2.5,0.5
			c-0.8,0-1.5-0.1-2.2-0.4s-1.3-0.7-1.7-1.3c-0.5-0.6-0.9-1.4-1.1-2.3c-0.3-0.9-0.4-2.1-0.4-3.4c0-1.2,0.1-2.3,0.4-3.2
			c0.3-0.9,0.6-1.7,1.1-2.4c0.5-0.6,1.1-1.1,1.8-1.5c0.7-0.3,1.5-0.5,2.5-0.5c0.8,0,1.5,0.1,2.2,0.4s1.3,0.7,1.7,1.3
			c0.5,0.6,0.9,1.4,1.1,2.3C309.3,191.4,309.4,192.5,309.4,193.9z M300.8,193.9c0,0.1,0,0.3,0,0.4s0,0.3,0,0.4l5.5-3.9
			c-0.3-0.7-0.6-1.3-1-1.6c-0.4-0.4-0.9-0.5-1.5-0.5c-0.4,0-0.8,0.1-1.2,0.3c-0.4,0.2-0.7,0.5-0.9,1c-0.3,0.4-0.5,1-0.6,1.6
			C300.9,192.2,300.8,193,300.8,193.9z M306.7,193.9c0-0.1,0-0.3,0-0.4s0-0.3,0-0.4l-5.4,3.9c0.2,0.7,0.6,1.3,1,1.6
			c0.4,0.3,0.9,0.5,1.5,0.5c0.4,0,0.8-0.1,1.2-0.3c0.4-0.2,0.7-0.5,0.9-1s0.5-1,0.6-1.6S306.7,194.8,306.7,193.9z"/>
	</g>
</g>
<rect x="404" y="96.7" class="st3" width="13.8" height="7.8"/>
<g>
	<text transform="matrix(1 0 0 1 403.9734 103.724)" class="st4 st5 st6">2</text>
</g>
<rect x="404" y="58.8" class="st3" width="13.8" height="7.8"/>
<text transform="matrix(1 0 0 1 403.9734 65.9037)" class="st4 st5 st6">1</text>
</svg>
