<?xml version="1.0" encoding="utf-8"?>
<!-- Generator: Adobe Illustrator 26.2.1, SVG Export Plug-In . SVG Version: 6.00 Build 0)  -->
<svg version="1.1" id="Layer_1" xmlns="http://www.w3.org/2000/svg" xmlns:xlink="http://www.w3.org/1999/xlink" x="0px" y="0px"
	 width="403.2px" height="105px" viewBox="0 0 403.2 105" style="enable-background:new 0 0 403.2 105;" xml:space="preserve">
<style type="text/css">
	.st0{display:none;}
	.st1{fill:none;}
	.st2{font-family:'Consolas';}
	.st3{font-size:12px;}
	.st4{fill:#414042;}
	.st5{fill:#0073E6;}
	.st6{font-family:'ArialMT';}
	.st7{font-size:6.9072px;}
</style>
<g id="Layer_1_00000100361264542661035940000006517109339500299415_" class="st0">
</g>
<g id="Layer_2_00000040544052441303874930000016837468361816103565_">
	<g>
		<line class="st1" x1="296.3" y1="10.5" x2="152.9" y2="10.5"/>
		<line class="st1" x1="402.9" y1="10.5" x2="305.9" y2="10.5"/>
		<line class="st1" x1="143.4" y1="10.5" x2="0.2" y2="10.5"/>
		<rect x="0.2" y="10.3" width="143.2" height="0.5"/>
		<rect x="152.9" y="10.3" width="143.4" height="0.5"/>
		<rect x="305.9" y="10.3" width="97.1" height="0.5"/>
	</g>
	<g>
		<line class="st1" x1="296.3" y1="29.7" x2="152.9" y2="29.7"/>
		<line class="st1" x1="402.9" y1="29.7" x2="305.9" y2="29.7"/>
		<line class="st1" x1="143.4" y1="29.7" x2="0.2" y2="29.7"/>
		<rect x="0.2" y="29.6" width="143.2" height="0.2"/>
		<rect x="152.9" y="29.6" width="143.4" height="0.2"/>
		<rect x="305.9" y="29.6" width="97.1" height="0.2"/>
	</g>
	<line class="st1" x1="296.3" y1="27.4" x2="152.9" y2="27.4"/>
	<line class="st1" x1="402.9" y1="27.4" x2="305.9" y2="27.4"/>
	<line class="st1" x1="143.4" y1="27.4" x2="0.2" y2="27.4"/>
	<rect x="0.2" y="27.1" width="143.2" height="0.5"/>
	<rect x="152.9" y="27.1" width="143.4" height="0.5"/>
	<rect x="305.9" y="27.1" width="97.1" height="0.5"/>
	<g>
		<polyline class="st1" points="402.9,46.8 325.9,46.8 324.1,46.8 321.9,46.8 320.9,46.8 319,46.8 318,46.8 305.9,46.8 		"/>
		<polyline class="st1" points="296.3,46.8 170.7,46.8 169.7,46.8 169.6,46.8 167.8,46.8 165.8,46.8 164.7,46.8 152.9,46.8 		"/>
		<polyline class="st1" points="143.4,46.8 19.7,46.8 18.6,46.8 17.5,46.8 16.5,46.8 15.6,46.8 14.6,46.8 12.9,46.8 11.9,46.8 
			0.2,46.8 		"/>
		<rect x="0.2" y="46.7" width="143.2" height="0.2"/>
		<rect x="152.9" y="46.7" width="143.4" height="0.2"/>
		<rect x="305.9" y="46.7" width="97.1" height="0.2"/>
	</g>
	<g>
		<polyline class="st1" points="152.9,56.5 164.4,56.5 165.4,56.5 172.3,56.5 173.3,56.5 296.3,56.5 		"/>
		<polyline class="st1" points="305.9,56.5 317.2,56.5 318.2,56.5 325.4,56.5 326.4,56.5 402.9,56.5 		"/>
		<polyline class="st1" points="143.4,56.5 20.5,56.5 19.5,56.5 12.4,56.5 11.4,56.5 0.2,56.5 		"/>
		<rect x="0.2" y="56.1" width="143.2" height="0.8"/>
		<rect x="152.9" y="56.1" width="143.4" height="0.8"/>
		<rect x="305.9" y="56.1" width="97.1" height="0.8"/>
	</g>
	<g>
		<polyline class="st1" points="152.9,65.6 163.5,65.6 164.5,65.6 172.6,65.6 173.8,65.6 296.3,65.6 		"/>
		<polyline class="st1" points="305.9,65.6 316.9,65.6 317.9,65.6 325.6,65.6 326.6,65.6 402.9,65.6 		"/>
		<polyline class="st1" points="143.4,65.6 20.9,65.6 19.9,65.6 12.1,65.6 11.1,65.6 0.2,65.6 		"/>
		<rect x="0.2" y="65.4" width="143.2" height="0.2"/>
		<rect x="152.9" y="65.4" width="143.4" height="0.2"/>
		<rect x="305.9" y="65.4" width="97.1" height="0.2"/>
	</g>
	<g>
		<polyline class="st1" points="0.2,83 22.1,83 24.2,83 26.3,83 26.9,83 39.8,83 40.9,83 41.9,83 46.1,83 114.2,83 115.3,83 
			118.9,83 120.1,83 137.6,83 138.7,83 143.4,83 		"/>
		<polyline class="st1" points="402.9,83 402.7,83 396.7,83 396.3,83 394.6,83 393.6,83 372,83 370.9,83 368.1,83 367.8,83 364,83 
			362.9,83 342.9,83 342.9,83 335.8,83 334.3,83 330.1,83 328,83 326.8,83 316.5,83 314,83 313.5,83 311.7,83 308.9,83 306.9,83 
			305.9,83 		"/>
		<polyline class="st1" points="296.6,83 296.3,83 294.2,83 290,83 286.1,83 284.2,83 272.2,83 271.4,83 270.2,83 267.8,83 
			265.2,83 264,83 259.5,83 259.3,83 255.8,83 255.5,83 231.5,83 230.6,83 228.3,83 226.9,83 224.8,83 223.7,83 221.8,83 217.2,83 
			214.6,83 212.5,83 211.4,83 210.6,83 207.3,83 206.3,83 205.8,83 203.3,83 201.4,83 199.5,83 198.6,83 187.8,83 186.4,83 
			184.9,83 182.8,83 182.4,83 175.6,83 175.1,83 174.1,83 162.6,83 153.9,83 153.7,83 152.9,83 152.8,83 		"/>
		<rect x="0.2" y="82.9" width="143.2" height="0.2"/>
		<path d="M296.7,82.9l-0.1,0.1l-0.1,0.1H152.9l-0.1-0.1c0,0,0,0,0-0.1c0,0,0,0,0-0.1h143.9V82.9z"/>
		<rect x="305.9" y="82.9" width="97.1" height="0.2"/>
	</g>
	<rect x="0.2" y="101.1" width="143.2" height="1"/>
	<rect x="152.9" y="101.1" width="143.4" height="1"/>
	<rect x="305.9" y="101.1" width="97.1" height="1"/>
	<text transform="matrix(1 0 0 1 380.4458 9.8289)" class="st2 st3">100</text>
	<text transform="matrix(1 0 0 1 387.0435 26.6801)" class="st2 st3">80</text>
	<text transform="matrix(1 0 0 1 347.9565 26.6801)" class="st2 st3">OUT</text>
	<text transform="matrix(1 0 0 1 347.7299 55.595)" class="st2 st3">WEB</text>
	<text transform="matrix(1 0 0 1 341.2718 82.4673)" class="st2 st3">MEDIA</text>
	<text transform="matrix(1 0 0 1 387.0435 46.0844)" class="st2 st3">60</text>
	<text transform="matrix(1 0 0 1 387.0435 65.0417)" class="st2 st3">40</text>
	<text transform="matrix(1 0 0 1 387.0435 82.4673)" class="st2 st3">20</text>
	<text transform="matrix(1 0 0 1 393.6411 100.7226)" class="st2 st3">0</text>
	<g>
		<rect x="0.2" y="101.9" width="17.9" height="3.1"/>
		<rect x="18.7" y="101.9" width="16.9" height="3.1"/>
		<rect x="36.4" y="101.9" width="16.8" height="3.1"/>
		<rect x="54" y="101.9" width="16.8" height="3.1"/>
		<rect x="71.6" y="101.9" width="16.8" height="3.1"/>
		<rect x="89.3" y="101.9" width="16.8" height="3.1"/>
		<rect x="106.8" y="101.9" width="16.8" height="3.1"/>
		<rect x="124.5" y="101.9" width="16.8" height="3.1"/>
		<rect x="142.1" y="101.9" width="1.3" height="3.1"/>
		<rect x="153" y="101.9" width="6" height="3.1"/>
		<rect x="159.6" y="101.9" width="16.9" height="3.1"/>
		<rect x="177.3" y="101.9" width="16.8" height="3.1"/>
		<rect x="194.9" y="101.9" width="16.8" height="3.1"/>
		<rect x="212.5" y="101.9" width="16.8" height="3.1"/>
		<rect x="230.2" y="101.9" width="16.8" height="3.1"/>
		<rect x="247.6" y="101.9" width="17" height="3.1"/>
		<rect x="265.3" y="101.9" width="17" height="3.1"/>
		<rect x="282.9" y="101.9" width="13.4" height="3.1"/>
		<rect x="305.9" y="101.9" width="11.5" height="3.1"/>
		<rect x="318.2" y="101.9" width="16.7" height="3.1"/>
		<rect x="335.8" y="101.9" width="16.7" height="3.1"/>
		<rect x="335.8" y="101.9" width="16.7" height="3.1"/>
		<rect x="353.3" y="101.9" width="16.9" height="3.1"/>
		<rect x="371" y="101.9" width="16.9" height="3.1"/>
		<rect x="388.4" y="101.9" width="13.2" height="3.1"/>
	</g>
	<path class="st4" d="M23.1,83.3c-0.4,0-0.9-0.2-1.2-0.5s-0.4-0.6-0.4-0.9c0-0.1,0-0.1,0-0.2v-0.1l-0.1-0.1
		c-0.1-0.1-0.1-0.2-0.2-0.2C21,80.9,21,80.5,21,80.2c0-0.1,0-0.3,0-0.4c0-0.2-0.1-0.4-0.2-0.6c-0.1-0.2-0.2-0.5-0.3-0.7
		c-0.1-0.4-0.1-0.8,0-1.1l0.2-2.5c0-0.2,0-0.4,0-0.5s-0.1-0.1-0.1-0.2S20.5,74,20.5,74c-0.3-0.5-0.3-1.1-0.2-1.5l0.2-4.1
		c0-0.2,0-0.4,0-0.6c0-0.1-0.1-0.3-0.1-0.4s-0.1-0.2-0.1-0.3c-0.2-0.6-0.2-1.2-0.1-1.8c0-0.4,0-0.8,0-1.2c0-0.9,0-1.9,0.1-2.9
		c0.1-0.5-0.1-1-0.2-1.6c-0.1-0.3-0.1-0.5-0.2-0.8c-0.1-0.7-0.1-1.5-0.1-2.2c0-2.7-0.1-5.3-0.2-7.9c0-0.4-0.1-0.8-0.2-1
		c0-0.1-0.1-0.1-0.1-0.1c-0.2-0.2-0.4-0.4-0.4-0.8c0-0.1,0-0.2,0-0.2c-0.2,0.1-0.5,0.2-0.7,0.2c-0.1,0-0.4,0.1-0.4,0.1s0,0.1,0,0.2
		c-0.1,0.9-0.4,1.5-0.7,2.1c-0.1,0.1-0.3,0.6-0.8,0.7c-0.2,0-0.4,0-0.6-0.1c-0.2-0.1-0.2-0.3-0.2-0.5c0.1-0.3-0.1-0.6-0.2-0.9
		c-0.1-0.3-0.3-0.7-0.3-1.1c0-0.2,0-0.4,0-0.6v-0.2c0-0.3,0-0.6,0-1l-0.4-3.7c0-0.2-0.1-0.3-0.1-0.4c0,0,0,0.1-0.1,0.2
		c-0.6,2.2-1.3,4.4-1.2,6.7c0,0.3,0,0.5,0,0.8c0,0.7,0.1,1.4,0,2.2c0,0.2-0.1,0.5-0.2,0.7c-0.1,0.3-0.1,0.5-0.2,0.8
		c-0.1,0.8-0.1,1.6-0.1,2.4c0,0.3,0,0.6,0,0.8c0,1.4-0.1,2.5-0.3,3.5c-0.2,0.9-0.1,1.9-0.1,2.8l0.1,3c0,0.4,0,1-0.4,1.3
		c0,0.2,0,0.5-0.1,0.7c0,0.2,0,0.3,0,0.4c-0.1,1-0.1,1.7,0,2.3c0.1,0.7,0.2,1.5,0,2.5c0,0.1,0,0.2-0.1,0.3c0,0.2-0.1,0.4-0.1,0.6
		s0,0.4,0,0.6v0.2c0.1,1.2-0.1,2.4-0.3,3.6c-0.1,0.4-0.2,0.9-0.2,1.3c0,0.2-0.1,0.5,0,0.7c0,0.2,0,0.3,0.1,0.5
		c0.1,0.5,0.2,1.2-0.2,1.7c-0.3,0.4-0.9,0.6-1.4,0.5C9.4,82.4,9.2,82.3,9,82c-0.2,0.1-0.3,0.3-0.4,0.5c-0.1,0.1-0.2,0.2-0.4,0.2
		l-0.9,0.1c-0.4,0-0.8,0.1-1.1,0.1L5.9,83c-0.6,0.2-1.4,0.4-2.1-0.2c-0.1-0.1-0.2-0.1-0.2-0.2c-0.1-0.1-0.1-0.1-0.2-0.1l-0.1,0.1
		c-0.1,0.1-0.1,0.1-0.3,0.2s-0.5,0.1-0.7,0.1H0.5c-0.3,0-0.5-0.2-0.5-0.5s0.2-0.5,0.5-0.5h1.8c0.1,0,0.2,0,0.2,0
		c0.1-0.1,0.2-0.2,0.3-0.2c0.3-0.2,0.7-0.3,1.1-0.1c0.2,0.1,0.3,0.2,0.4,0.3L4.4,82c0.3,0.2,0.7,0.1,1.2,0l0.3-0.1
		c0.4-0.1,0.8-0.1,1.2-0.2l0.7-0.1c0.3-0.4,0.7-0.7,1.1-0.9c0.1-0.1,0.3-0.1,0.5,0c0.1,0.1,0.2,0.2,0.3,0.4c0,0.1,0.1,0.3,0.2,0.3
		c0.1,0,0.3,0,0.4-0.1c0.1-0.2,0.1-0.5,0-0.9c0-0.2-0.1-0.4-0.1-0.6c0-0.3,0-0.6,0.1-0.9c0.1-0.5,0.2-0.9,0.2-1.4
		c0.2-1.1,0.4-2.2,0.3-3.3V74c0-0.2-0.1-0.5,0-0.7c0-0.3,0.1-0.5,0.1-0.7c0-0.1,0-0.2,0.1-0.3c0.2-0.9,0.1-1.5,0-2.2s-0.2-1.5,0-2.6
		c0-0.1,0-0.2,0-0.3c0-0.8,0.1-1.2,0.4-1.5c0,0,0,0,0.1,0c0-0.1,0-0.3,0-0.5l-0.1-3c0-1-0.1-2,0.1-3c0.1-0.9,0.2-2,0.2-3.3
		c0-0.3,0-0.6,0-0.8c0-0.8,0-1.6,0.1-2.5c0-0.3,0.1-0.6,0.2-0.9c0.1-0.2,0.1-0.4,0.1-0.7c0.1-0.6,0.1-1.3,0-1.9c0-0.3,0-0.6,0-0.8
		c-0.1-2.4,0.6-4.8,1.2-7c0.1-0.2,0.2-0.8,0.8-1c0.3-0.1,0.5,0,0.7,0.1c0.5,0.3,0.6,1,0.6,1.2l0.4,3.7c0,0.3,0.1,0.7,0.1,1.1v0.2
		c0,0.1,0,0.3,0,0.4c0,0.2,0.1,0.5,0.2,0.8c0.1,0.2,0.1,0.3,0.2,0.5c0.2-0.4,0.4-0.9,0.4-1.3c0-0.2,0-0.4,0.1-0.7
		c0.2-0.5,0.7-0.6,1.1-0.6c0.2,0,0.3-0.1,0.4-0.1l0.1-0.1c0.2-0.1,0.5-0.4,0.9-0.3c0.6,0.2,0.5,0.9,0.4,1.1c0,0.1,0,0.2,0,0.3
		c0,0,0.1,0.2,0.2,0.2c0.1,0.1,0.1,0.1,0.2,0.2c0.4,0.5,0.4,1.1,0.4,1.6c0.1,2.6,0.2,5.2,0.2,7.8c0,0.8,0,1.4,0.1,2
		c0,0.2,0.1,0.5,0.2,0.7c0.2,0.7,0.4,1.3,0.2,2.1c-0.2,0.8-0.1,1.7-0.1,2.6c0,0.4,0,0.9,0,1.3c0,0.5,0,1,0.1,1.5
		c0,0.1,0.1,0.2,0.1,0.2c0.1,0.2,0.1,0.3,0.1,0.5c0.1,0.3,0,0.6,0,0.9l-0.2,4.1c0,0.4,0,0.8,0.1,1c0,0.1,0.1,0.1,0.1,0.2
		c0.1,0.1,0.2,0.2,0.2,0.4c0.1,0.3,0.1,0.6,0.1,0.9l-0.2,2.5c0,0.3,0,0.6,0,0.8c0,0.2,0.1,0.3,0.2,0.5c0.1,0.3,0.3,0.6,0.4,1
		c0,0.2,0,0.4,0,0.6s0,0.4,0,0.5l0.1,0.1c0.1,0.1,0.2,0.3,0.3,0.5c0,0.2,0,0.4,0,0.5v0.1c0,0.1,0,0.1,0.1,0.2s0.3,0.2,0.5,0.2
		c0.4,0,0.9-0.3,1.2-0.5c0.8-0.5,1.9,0,2.3,0.2c0,0,0,0,0.1,0h0.1c0.4-0.2,0.9-0.3,1.2-0.3c0.8,0,1.7-0.1,2.5-0.1
		c0.7,0,1.4,0,2.1,0.1l0.4,0.1c0.7,0.1,1.4,0.2,1.9-0.1c0.2-0.1,0.4-0.3,0.6-0.3c0.4-0.1,0.7,0.1,0.8,0.3c0.1,0,0.1,0.1,0.2,0.1
		c0.4,0,0.9-0.1,1.3-0.1s0.8-0.1,1.3-0.1c0.2,0,0.6,0,0.9,0.2c0.2,0.1,0.3,0.2,0.4,0.4l0,0c0.1-0.1,0.1-0.2,0.3-0.3
		c0.5-0.4,1-0.1,1.3,0.1c0.1,0,0.1,0.1,0.2,0.1c0.2,0.1,0.5,0.1,0.8,0.1h2.3c0.4,0,0.6,0,0.8-0.1c0.1,0,0.1-0.1,0.2-0.2
		c0.2-0.2,0.4-0.4,0.8-0.5c0.3,0,0.5,0,0.6,0.1c1.5,0.5,3.2,0.5,4.7,0.1l0.3-0.1c0.6-0.2,1.3-0.4,2-0.2c1.1,0.2,2.4,0.5,3.5,0.2
		c0.2,0,0.4-0.1,0.6-0.2c0.4-0.2,0.9-0.3,1.4-0.3h0.1h0.1l0.1-0.1c0.6-0.4,1.3-0.3,1.8-0.2l0.5,0.1c1.1,0.2,2.2,0.3,3.3,0.2
		c0.1,0,0.3,0,0.4-0.1c0,0,0.1,0,0.1-0.1c0.1-0.1,0.3-0.1,0.4-0.1c0.5-0.1,0.9,0.1,1.2,0.2c0.3,0.1,0.6,0.2,0.7,0.1
		c0.1-0.1,0.3-0.1,0.5-0.1c0.2,0.1,0.3,0.2,0.3,0.4c0,0,0,0.1,0.1,0.1c0.1,0,0.1,0,0.1,0c0.1-0.2,0.3-0.2,0.5-0.1l0.3,0.1
		c0.8-0.6,1.8-0.7,2.8-0.7l1.9-0.1c0.3,0,0.7,0,1,0.1c0.1,0,0.3,0.1,0.4,0.2C76.9,81,77,81,77.1,81l0,0c0.1,0,0.2,0,0.3-0.1
		c0.1,0,0.1-0.1,0.2-0.1c0.5-0.2,1.1-0.1,1.5-0.1l0.6,0.1c0.9,0.1,1.8,0.2,2.8,0.3c0.2,0,0.4,0.1,0.6,0c0.1,0,0.3-0.1,0.4-0.1
		c0.2-0.1,0.5-0.1,0.8-0.1c0.4,0,0.8,0.2,1.1,0.4c0.3,0.2,0.5,0.3,0.7,0.3c0.8-0.1,1.7-0.1,2.5-0.1s1.6,0,2.3-0.1
		c0.3,0,0.7-0.1,1-0.1l0.5-0.1c1.4-0.2,3-0.4,4.4,0l0.2,0.1c0.5,0.1,1,0.3,1.2,0.1c0.1-0.1,0.3-0.1,0.5,0c0.9,0.4,1.9,0.4,2.7,0
		c0.2-0.1,0.4-0.2,0.6-0.2c0.3,0,0.6,0.1,0.8,0.1c0.2,0.1,0.4,0.1,0.5,0.1s0.3,0,0.5,0s0.3,0.1,0.4,0.2c0,0,0.1,0,0.1,0.1
		c0.2,0.1,0.4,0.1,0.6,0.1c1,0,2,0.1,2.9-0.2h0.1c0.3-0.1,0.7-0.2,1.1-0.1c0.2,0.1,0.4,0.2,0.6,0.3c0.1,0,0.1,0.1,0.2,0.1
		c0.1,0,0.1,0,0.1,0c0.1-0.1,0.2-0.1,0.3-0.1c0.3,0,0.7,0,1.1-0.1c0.4,0,0.8-0.1,1.2-0.1c0.3,0,0.6,0,0.9,0.2
		c0.3,0.1,0.5,0.3,0.6,0.5c0.1,0.1,0.3,0.3,0.4,0.3c0,0,0.1-0.1,0.2-0.2c0.1-0.1,0.3-0.3,0.5-0.4s0.5-0.1,0.7-0.1
		c1.1,0,2.2,0.2,3.2,0.5c0.1,0,0.2,0.1,0.2,0.1l0.1-0.1c0.1,0,0.1-0.1,0.2-0.1c0.4-0.2,0.9-0.2,1.3-0.1l0.1-0.1
		c0.3-0.2,0.7-0.3,1.1-0.2c0.1,0,0.2,0,0.3,0.1c0.2,0,0.4,0.1,0.5,0.1c0,0,0.1-0.1,0.2-0.1c0.1-0.1,0.1-0.1,0.2-0.2
		c0.3-0.3,0.8-0.4,1.2-0.4s0.9,0.2,1.1,0.6l0.1,0.1l0.1-0.1c0.2-0.1,0.6-0.3,1,0c0.2,0.1,0.3,0.3,0.4,0.4c0,0,0,0.1,0.1,0.1
		c0,0,0.1,0,0.4,0c0.7-0.2,1.2-0.3,1.6-0.6l0.1-0.1c0.2-0.2,0.5-0.4,0.8-0.4s0.6,0.1,0.9,0.2c0.1,0.1,0.3,0.1,0.4,0.1
		c0.2,0,0.3,0,0.4,0.1c0.1,0.1,0.2,0.3,0.2,0.4c0,0,0,0.1,0.1,0.1l0.1,0.1c0,0,0.1,0,0.2-0.1c0.1,0,0.1-0.1,0.2-0.1
		c0.5-0.2,1-0.2,1.5,0c0.4-0.1,0.8-0.1,1.2-0.1c0.3,0,0.5,0,0.8,0c0.4,0,0.8,0,1.2,0.2c0.1,0.1,0.3,0.2,0.4,0.3
		c0.1,0.1,0.2,0.2,0.2,0.2l0.1-0.1c0.2-0.1,0.4-0.3,0.8-0.3c0.1,0,0.2,0,0.3,0.1c0.1,0,0.2-0.1,0.2-0.1c0.1,0,0.1-0.1,0.2-0.1
		c0.6-0.4,1.4-0.4,2,0.1l0.1,0.1l0.1,0.1c0,0,0.2-0.1,0.3-0.1l0.1-0.1c0.5-0.2,1.2-0.2,1.7,0c0.3,0.1,0.4,0.4,0.3,0.6
		c-0.1,0.3-0.4,0.4-0.6,0.3c-0.3-0.1-0.7-0.1-1,0h-0.1c-0.3,0.1-0.6,0.3-1,0.1c-0.2-0.1-0.3-0.2-0.4-0.3c-0.3-0.2-0.6-0.2-0.8-0.1
		l-0.1,0.1c-0.2,0.1-0.5,0.4-0.8,0.3c-0.1,0-0.2,0-0.3-0.1c0,0-0.1,0-0.2,0.1c-0.1,0.1-0.3,0.3-0.6,0.3c-0.4,0.1-0.8-0.2-1-0.4
		c-0.1-0.1-0.1-0.1-0.2-0.2c-0.1-0.1-0.4-0.1-0.6,0c-0.3,0-0.5,0-0.8,0c-0.4,0-0.9,0-1.3,0.1c-0.1,0-0.3,0-0.4-0.1
		c-0.2-0.1-0.5-0.2-0.7-0.1c0,0-0.1,0-0.1,0.1c-0.1,0.1-0.2,0.1-0.4,0.2c-0.4,0.1-0.7,0-1-0.2c-0.2-0.1-0.3-0.3-0.4-0.5
		c-0.2,0-0.3-0.1-0.4-0.1c-0.1-0.1-0.3-0.1-0.4-0.1c-0.1,0-0.2,0.1-0.3,0.2l-0.1,0.1c-0.6,0.4-1.3,0.6-2,0.8
		c-0.3,0.1-0.9,0.2-1.3-0.2c-0.1-0.1-0.2-0.2-0.2-0.3l0,0c0,0-0.1,0-0.1,0.1c-0.2,0.1-0.6,0.3-1,0.1c-0.2-0.1-0.3-0.2-0.4-0.3
		c-0.1-0.2-0.3-0.2-0.5-0.3c-0.2,0-0.4,0-0.5,0.1l-0.1,0.1c-0.1,0.1-0.2,0.2-0.4,0.3c-0.4,0.2-0.9,0.1-1.2,0h-0.2
		c-0.1,0-0.3,0-0.3,0c0,0.2-0.1,0.3-0.2,0.4c-0.1,0.1-0.3,0.1-0.4,0c-0.3-0.1-0.7-0.2-0.9-0.1c0,0-0.1,0-0.1,0.1
		c-0.1,0.1-0.3,0.2-0.5,0.2c-0.3,0.1-0.5,0-0.7-0.1c-1-0.3-2-0.5-2.9-0.5c-0.1,0-0.2,0-0.3,0c0,0-0.1,0.1-0.2,0.2
		c-0.1,0.1-0.3,0.3-0.6,0.4c-0.6,0.2-1-0.2-1.3-0.5c-0.1-0.1-0.3-0.2-0.4-0.3c-0.1-0.1-0.3-0.1-0.5-0.1c-0.3,0-0.7,0-1.1,0.1
		c-0.3,0-0.7,0.1-1,0.1c-0.3,0.2-0.8,0.1-1.1,0c-0.1,0-0.2-0.1-0.3-0.2s-0.2-0.1-0.3-0.2c-0.1,0-0.3,0-0.5,0.1h-0.1
		c-1.1,0.3-2.2,0.3-3.2,0.2c-0.3,0-0.6,0-0.9-0.2c-0.1,0-0.1-0.1-0.2-0.1l-0.1-0.1c0,0-0.1,0-0.2,0c-0.4,0.1-0.7,0-1-0.1
		c-0.1,0-0.3-0.1-0.4-0.1c-0.1,0-0.1,0-0.2,0.1c-1.1,0.5-2.3,0.6-3.4,0.1c-0.6,0.3-1.3,0.1-1.8-0.1l-0.2-0.1c-1.3-0.3-2.7-0.2-4,0
		l-0.5,0.1c-0.3,0-0.7,0.1-1.1,0.1c-0.8,0.1-1.6,0.1-2.4,0.1s-1.6,0-2.5,0.1c-0.5,0.1-1-0.2-1.3-0.4c-0.2-0.1-0.5-0.3-0.7-0.3
		c-0.1,0-0.3,0-0.5,0.1c-0.2,0-0.4,0.1-0.5,0.1c-0.3,0-0.6,0-0.8,0c-0.9-0.1-1.8-0.2-2.8-0.3l-0.6-0.1c-0.4,0-0.8-0.1-1.1,0
		c-0.1,0-0.1,0-0.2,0.1c-0.2,0.1-0.4,0.2-0.7,0.2s-0.6-0.1-0.8-0.3c-0.1,0-0.2-0.1-0.2-0.1c-0.2-0.1-0.4-0.1-0.6,0l-1.9,0.1
		c-0.9,0-1.8,0.1-2.3,0.7c-0.1,0.1-0.3,0.2-0.5,0.1l-0.3-0.1c-0.3,0.1-0.6,0.2-0.9,0.1c-0.2-0.1-0.4-0.2-0.5-0.3
		c-0.4,0.1-0.8-0.1-1.1-0.2s-0.5-0.2-0.7-0.2c-0.1,0-0.1,0-0.2,0.1c-0.1,0-0.1,0.1-0.2,0.1c-0.2,0.1-0.5,0.1-0.6,0.1
		c-1.2,0.1-2.4,0-3.6-0.2l-0.5-0.1c-0.4-0.1-0.8-0.1-1,0.1c-0.1,0.1-0.3,0.2-0.4,0.3c-0.2,0.1-0.4,0-0.6,0c-0.4,0-0.6,0.1-1,0.2
		c-0.2,0.1-0.5,0.2-0.7,0.3c-1.4,0.3-2.8,0.1-4-0.2c-0.5-0.1-1,0-1.5,0.2l-0.3,0.1c-1.7,0.5-3.5,0.4-5.3-0.1c-0.1,0-0.2-0.1-0.2-0.1
		s-0.2,0.1-0.2,0.2c-0.1,0.1-0.2,0.2-0.3,0.3c-0.5,0.3-1,0.3-1.4,0.3h-2.3c-0.3,0-0.8,0-1.2-0.2c-0.1,0-0.2-0.1-0.3-0.1
		c-0.1,0-0.2-0.1-0.3-0.1l0,0c-0.1,0.1-0.2,0.4-0.5,0.5c-0.5,0.2-0.9-0.2-1.1-0.4c-0.1-0.1-0.1-0.1-0.2-0.2c0,0-0.2,0-0.3,0
		c-0.4,0-0.8,0.1-1.2,0.1c-0.5,0-0.9,0.1-1.4,0.1c-0.3,0-0.6-0.1-0.8-0.3c0,0-0.1-0.1-0.2-0.1c0,0,0,0-0.1,0.1L35.4,83
		c-0.8,0.6-1.8,0.4-2.6,0.3l-0.4-0.1c-0.6-0.1-1.3-0.1-1.9-0.1c-0.8,0-1.7,0-2.5,0.1c-0.3,0-0.6,0-0.7,0.1c-0.1,0.1-0.3,0.2-0.5,0.2
		c-0.3,0-0.5-0.1-0.6-0.2c-0.4-0.2-0.9-0.4-1.2-0.2C24.4,83,23.8,83.3,23.1,83.3L23.1,83.3z"/>
	<path class="st4" d="M297.1,82.6c-0.1,0.1-0.2,0.1-0.3,0.2l0,0c0,0,0,0.1-0.1,0.1l-0.1,0.1l-0.1,0.1c0,0-0.1,0.1-0.2,0.1
		c-0.1,0.1-0.2,0.1-0.3,0.1c-0.3,0-0.5-0.1-0.7-0.2c-0.2,0.7-0.9,1-2,1l0,0h-2c-0.5,0-1,0-1.5-0.2c-0.2-0.1-0.3-0.2-0.4-0.2
		s-0.2-0.1-0.2-0.1c-0.5-0.3-1.2-0.3-1.8,0c-0.2,0.1-0.5,0.1-0.7-0.1c-0.1-0.1-0.2-0.2-0.3-0.3c-0.1,0-0.1-0.1-0.2-0.1
		S286,83,285.9,83c-0.4-0.2-0.8-0.2-1.2,0h-0.1c-0.1,0-0.2,0.1-0.3,0.1l0,0c-0.1,0-0.2,0.1-0.2,0.1c-0.3,0.1-0.6,0.2-1,0.2
		c-0.2,0-0.3,0-0.5-0.1c-0.1,0-0.3-0.1-0.3-0.1c-0.1,0-0.3,0.1-0.5,0.1c-0.4,0.1-0.9,0.3-1.4,0c-0.1,0-0.2-0.1-0.3-0.2L280,83
		c0,0-0.1,0-0.1,0.1c0,0-0.1,0.1-0.2,0.1c-0.1,0.1-0.2,0.1-0.2,0.2c-0.4,0.3-1,0.4-1.5,0.2c-0.2-0.1-0.4-0.2-0.4-0.5h-0.1
		c-0.1,0-0.2,0-0.3,0h-0.4l-1.3,0.1c-0.8,0-1.5,0.1-2.3,0c-0.1,0-0.2,0-0.3-0.1c-0.1,0-0.3-0.1-0.4-0.1s-0.2-0.1-0.4-0.1
		c-0.1,0-0.1,0-0.2-0.1c0,0,0,0-0.1,0.1c-0.1,0-0.1,0.1-0.2,0.1c-0.1,0.1-0.2,0.1-0.3,0.1c-0.1,0-0.2,0-0.2,0c-0.1,0-0.1,0-0.2,0
		c-0.2,0-0.3-0.1-0.5-0.1c-0.1,0-0.2-0.1-0.2-0.1h-0.1H270c-0.5-0.2-1-0.2-1.5-0.1c-0.1,0-0.2,0.1-0.3,0.1c-0.1,0-0.1,0.1-0.2,0.1
		h-0.1l-0.1,0.1c-0.2,0.2-0.5,0.3-0.8,0.3c-0.5,0.1-1-0.1-1.4-0.3c-0.1,0-0.1-0.1-0.2-0.1l0,0c-0.1,0-0.2-0.1-0.2-0.1
		c-0.3-0.2-0.5-0.2-0.7-0.1l-0.1,0.1l-0.1,0.1l0,0l-0.1,0.1l-0.1,0.1c-0.5,0.5-1.3,0.6-2,0.3c0,0-0.1,0-0.1-0.1l-0.4-0.3l-0.3,0.3
		c-0.1,0.1-0.3,0.2-0.4,0.1c-0.2,0-0.3-0.1-0.4-0.3c0-0.1-0.1-0.2-0.2-0.2c-0.1-0.1-0.3-0.1-0.5-0.1c-0.1,0-0.2,0-0.2,0l0,0
		c-0.2,0-0.4,0.1-0.6,0.1c-0.1,0-0.2,0-0.3,0.1c-0.2,0.1-0.4,0.1-0.7,0.2c-0.6,0.1-1.2,0-1.5-0.2c0,0-0.1,0-0.1-0.1
		c-0.1,0-0.2,0-0.3-0.1c-0.1,0-0.1,0-0.2-0.1c0,0-0.1,0-0.1,0.1l-0.1,0.1c-0.7,0.5-1.6,0.8-2.5,0.6c-0.1,0-0.2,0-0.3-0.1
		c-0.2,0-0.3,0-0.5-0.1c-0.2,0-0.4,0.1-0.6,0.1l-0.2,0.1c-1.2,0.3-2.5,0.2-3.5-0.4l-0.2-0.1c-0.1-0.1-0.3-0.1-0.4-0.2
		c-0.1,0-0.2,0-0.3,0c-0.2,0-0.3,0-0.5,0h-3.2l-9.6,0.1c-0.4,0.3-1,0.3-1.4,0.1c-0.1-0.1-0.3-0.1-0.4-0.2l0,0
		c-0.1,0-0.1-0.1-0.2-0.1c-0.1-0.1-0.2-0.1-0.3-0.1h-0.1c-0.2,0-0.4,0-0.6,0.1h-0.1c-0.1,0-0.1,0-0.2,0.1c-0.3,0.1-0.6,0.2-1,0.2
		c-0.2,0-0.5-0.1-0.7-0.2c-0.1,0-0.2-0.1-0.3-0.1l0,0c-0.1,0-0.2-0.1-0.3-0.1c-0.1,0-0.2,0-0.2-0.1c-0.1,0-0.3,0-0.4,0.1
		c-0.1,0-0.2,0.1-0.4,0.1l0,0c-0.1,0-0.2,0.1-0.3,0.1c-0.3,0.1-0.7,0.2-1,0.1c-0.2,0-0.3-0.1-0.5-0.1c-0.1,0-0.1,0-0.2-0.1h-0.1
		c-0.1,0-0.1,0-0.2-0.1c-0.3-0.1-0.6,0-0.8,0.1l0,0c0,0-0.1,0.1-0.2,0.1c0,0,0,0-0.1,0c-0.3,0.2-0.7,0.4-1.2,0.2
		c-0.1,0-0.2-0.1-0.3-0.2c0,0-0.1,0-0.1-0.1c0,0,0,0-0.1,0l0,0c-0.1,0-0.1-0.1-0.2-0.1c-0.2-0.1-0.5-0.1-0.8-0.1l-0.1,0.1
		c-0.1,0.1-0.4,0.2-0.7,0.1c-0.1,0-0.3-0.1-0.4-0.1c-0.3,0-0.7,0-1,0c-0.1,0-0.3,0-0.4-0.1c-0.1-0.1-0.2-0.2-0.2-0.4l0,0
		c0,0,0,0-0.1,0c-0.1,0.1-0.2,0.2-0.3,0.2c-0.1,0.1-0.2,0.2-0.3,0.3c0,0-0.1,0-0.1,0.1h-0.1c-0.1,0-0.2,0.1-0.2,0.1
		c-0.6,0.2-1.3,0.2-1.9,0c-0.1,0-0.1,0-0.2,0c-0.1,0-0.2-0.1-0.3-0.1s-0.2-0.1-0.2-0.1c-0.1-0.1-0.2-0.3-0.3-0.5l0,0
		c-0.3,0-0.6,0.1-0.9,0.2l-0.2,0.1c-0.1,0-0.2,0.1-0.2,0.1c-0.1,0.1-0.2,0.1-0.3,0.1s-0.2,0.1-0.3,0.1c-0.2,0-0.5,0-0.7,0h-0.1
		c0,0,0,0-0.1,0c-0.3,0-0.5,0-0.8,0c-0.2,0-0.4,0.1-0.6,0.1c-0.1,0-0.2,0.1-0.3,0.1c0,0.1-0.1,0.2-0.2,0.2c-0.2,0.1-0.4,0.1-0.6,0.1
		c-0.1-0.1-0.2-0.2-0.3-0.3c-0.1,0-0.1,0-0.2-0.1c-0.1,0-0.3-0.1-0.5,0H208c-0.2,0.1-0.3,0.1-0.5,0c-0.1,0-0.2-0.1-0.2-0.1
		c-0.1,0-0.2-0.1-0.3-0.1c-0.1-0.1-0.2-0.1-0.4-0.1l-0.1,0.1c0,0,0,0-0.1,0s-0.2,0.1-0.2,0.1c-0.2,0-0.3,0-0.5,0
		c-0.1,0-0.2-0.1-0.3-0.1c-0.2-0.1-0.4-0.3-0.5-0.4s-0.4-0.3-0.5-0.3c0,0-0.1,0.1-0.1,0.2c-0.1,0.1-0.1,0.2-0.2,0.2
		c-0.1,0.1-0.3,0.2-0.5,0.3c-0.1,0.1-0.2,0.1-0.4,0.1c-0.3,0.1-0.6,0.1-0.9,0.1c-0.3,0-0.7,0-1.1-0.1c-0.1,0-0.2-0.1-0.3-0.1
		c0,0,0,0-0.1,0c0,0-0.1,0-0.2-0.1c-0.1,0-0.2-0.1-0.3-0.1s-0.3,0.1-0.5,0.2l0,0c-0.1,0-0.2,0.1-0.3,0.1c0,0,0,0-0.1,0
		c-0.3,0.1-0.7,0.1-1,0h-0.1c-0.1,0-0.1-0.1-0.2-0.1c-0.2-0.1-0.3-0.3-0.4-0.5c0-0.1,0-0.2-0.1-0.3c0,0,0,0-0.2,0
		c-1.7,0.1-3.4,0.2-5.1,0.4l-3.6,0.3c-0.2,0-0.4,0-0.6,0.1c-0.1,0-0.1,0-0.1,0c-0.1,0-0.1,0-0.2,0c-0.1,0-0.2,0-0.3,0.1
		c-0.1,0-0.2,0-0.3,0c-0.4,0.1-0.8,0-1.1,0c-0.1,0-0.1,0-0.2,0c-0.1,0-0.3,0-0.4-0.1c-0.1,0-0.2,0-0.4,0s-0.4,0-0.6,0.1
		c0,0-0.1,0-0.1,0.1l-0.1,0.1c-0.2,0.2-0.7,0.7-1.2,0.4c-0.2-0.1-0.3-0.3-0.4-0.4l0,0c0-0.1-0.1-0.1-0.2-0.1c-0.1,0-0.2,0-0.4,0
		c-0.1,0-0.3,0-0.4,0.1c-0.1,0-0.2,0-0.3,0c-0.6,0.1-1.2,0.1-1.8,0h-0.1c0,0,0,0-0.1,0l0,0l-0.1,0.1c-0.4,0.4-0.9,0.2-1.2,0.1
		c-0.1,0-0.3-0.1-0.3-0.1c-0.1,0-0.2,0.1-0.3,0.2c-0.2,0.1-0.5,0.3-0.8,0.3c-0.1,0-0.3,0-0.4-0.1c0,0-0.1,0-0.1,0.1l-0.1,0.1
		c-0.2,0.2-0.5,0.5-1,0.5l0,0c-0.3,0-0.9-0.1-1.1-1.2v-0.1l0,0v-0.1l-0.1-0.8c0-0.1,0-0.2,0-0.2c-0.1-0.1-0.2-0.2-0.2-0.2
		c-0.4-0.5-0.3-1.2-0.2-1.6c0.2-0.7,0.2-1.4,0.2-2.1v-0.2c0,0-0.1,0-0.1-0.1c-0.1-0.1-0.1-0.1-0.2-0.2c-0.3-0.4-0.3-0.9-0.2-1.2
		c0.1-0.8,0.1-1.6,0.1-2.5c0-0.4,0-0.8-0.1-1.1c0-0.1-0.1-0.2-0.2-0.3c-0.1-0.1-0.1-0.3-0.2-0.4c-0.2-0.6-0.2-1.3-0.1-1.9
		c0.1-1.3,0.1-2.7,0.1-4c-0.1-0.1-0.2-0.2-0.2-0.3c0,0,0-0.1-0.1-0.1c0,0,0-0.1-0.1-0.1c-0.2-0.5-0.2-1.1-0.1-1.4l0.3-3.5
		c0-0.3,0-0.6-0.1-0.8c0-0.1-0.1-0.1-0.1-0.2c-0.1-0.1-0.2-0.3-0.2-0.4c-0.1-0.3-0.1-0.7-0.1-0.9V57v-0.4v-0.4l0.1-1.9
		c0-0.1,0-0.2,0-0.3c-0.1-0.1-0.2-0.2-0.3-0.3c-0.1-0.2-0.2-0.5-0.2-0.6c-0.1-0.9-0.1-1.8-0.1-2.7c-0.1-0.1-0.2-0.2-0.2-0.3V50
		c-0.2,0.1-0.4,0.2-0.6,0c-0.6-0.4-1-1.1-1.2-2.1c0-0.3-0.1-0.7-0.1-1v-0.2c0-0.2,0-0.4,0-0.6c0,0.1,0,0.2,0,0.2c0,0.1,0,0.2,0,0.4
		v0.1v0.1l0,0c-0.2,0.4-0.7,0.6-1.4,0.3c-0.2,0-0.2-0.2-0.3-0.3v-0.1v-0.1l0,0c0-0.3-0.2-0.6-0.3-1c-0.1-0.1-0.1-0.3-0.2-0.5
		c-0.2-0.4-0.3-0.8-0.3-1.2c-0.2,0.1-0.4,0.2-0.6,0.4c-0.3,0.2-0.5,0.7-0.4,1.1s0.1,0.8-0.1,1.1c0,0,0,0-0.1,0.1l0,0l-0.1,0.1
		c0,0,0,0,0,0.1c0,0.7-0.1,1.3-0.2,2l-0.1,0.8c-0.1,1.1-0.2,2.2-0.1,3.4c0,0.2,0,0.4,0,0.6c0,0.4,0.1,0.8,0.1,1.1c0,0.4,0,0.9,0,1.3
		c0,0.1,0,0.2,0,0.4c0,0.1,0,0.2,0,0.4c-0.1,0.6-0.1,1.2-0.2,1.8c-0.1,0.8-0.2,1.7-0.3,2.6l-0.1,2.1c0,0.2,0,0.5-0.2,0.7
		c0,0.1-0.1,0.1-0.1,0.1c0,0.4,0.1,0.8,0.1,1.2v0.1v0.1c0,0.9,0.1,1.9,0.1,2.9v2.8c0,0.1,0,0.4-0.2,0.6c0,0-0.1,0.1-0.2,0.1l0,0
		c0.2,1.6,0.2,2.9,0,4.8c0,0.4-0.1,0.8-0.2,1.2c-0.2,0.5-0.3,0.9-0.2,1.4v0.1c0.1,0.3,0.2,0.8,0,1.2c0,0.1-0.1,0.2-0.2,0.3l-0.1,0.1
		c0,0.1-0.1,0.2-0.1,0.3c0,0.1,0,0.2,0,0.3c-0.1,0.5-0.4,0.9-0.8,1.1c-0.1,0-0.1,0.1-0.2,0.1c-0.1,0-0.1,0.1-0.2,0.1l0,0
		c-0.6,0.3-1.2,0.3-1.7,0h-0.1l0,0c0,0-0.1-0.1-0.2-0.1c0,0,0,0,0,0.1l0,0c-0.1,0.1-0.2,0.3-0.4,0.4c-0.4,0.2-0.8,0-1.1-0.2
		c-0.1,0-0.1-0.1-0.2-0.1c-0.1,0-0.3,0-0.5,0h-2c-0.4,0-0.8,0-1.2,0.1c-0.2,0-0.4,0.1-0.6,0c-0.1,0-0.3-0.1-0.4-0.2l-0.1-0.1
		l-0.1-0.1c-0.1-0.1-0.1-0.2-0.2-0.3v0.1c0,0.1,0,0.1,0,0.2v0.1c0,0,0,0.1-0.1,0.1c-0.1,0.1-0.1,0.1-0.2,0.2c-0.2,0.1-0.4,0-0.5-0.1
		l0,0l-0.1-0.1c0,0,0,0,0-0.1c0,0,0,0,0-0.1c-0.1-0.2-0.1-0.5-0.1-0.8c0-0.2,0.1-0.3,0.2-0.5c0.2-0.2,0.5-0.4,0.8-0.3
		c0.5,0.1,0.7,0.5,0.9,0.8c0,0.1,0.1,0.2,0.1,0.2s0,0,0.1,0c0.5-0.1,1-0.1,1.4-0.1h2c0.2,0,0.6,0,0.9,0.2c0.1,0,0.2,0.1,0.3,0.1
		c0,0,0.1,0,0.1,0.1l0,0c0.1-0.1,0.2-0.3,0.4-0.4c0.4-0.2,0.8,0,1.1,0.1h0.1c0.3,0.1,0.6,0.1,0.9,0c0.3-0.2,0.5-0.4,0.6-0.7
		c0-0.1,0-0.1,0-0.2c0-0.2,0.1-0.4,0.1-0.6c0-0.1,0.1-0.2,0.2-0.2l0.1-0.1c0-0.1,0-0.4-0.1-0.6v-0.2c-0.2-0.7,0-1.3,0.2-1.9
		c0.1-0.3,0.2-0.7,0.2-1c0.1-1.8,0.1-3,0-4.6c-0.1-0.6,0.2-0.9,0.4-1v-2.6c0-1,0-2-0.1-3v-0.1v-0.1c0-0.4,0-0.8-0.1-1.1
		c0-0.1,0-0.4,0.1-0.6c0.1-0.1,0.2-0.2,0.2-0.2s0-0.1,0-0.2l0.1-2.1c0-0.9,0.2-1.8,0.3-2.6c0.1-0.6,0.1-1.1,0.2-1.7
		c0-0.1,0-0.2,0-0.4c0-0.1,0-0.2,0-0.4c0-0.4,0.1-0.8,0-1.2c0-0.4,0-0.7-0.1-1c0-0.2,0-0.5-0.1-0.7c-0.1-1.2,0-2.4,0.1-3.5l0.1-0.7
		c0.1-0.7,0.1-1.4,0.2-2v-0.1v-0.1c0-0.1,0-0.1,0-0.2c0-0.2,0.1-0.3,0.3-0.4c0-0.1,0-0.2,0-0.3c-0.1-0.7,0.2-1.4,0.7-2
		c0.5-0.5,1.1-0.7,1.6-1c0.2-0.1,0.4-0.1,0.5,0s0.2,0.3,0.2,0.5c-0.1,0.5,0,1.1,0.2,1.5c0.1,0.1,0.1,0.3,0.2,0.4
		c0.1,0.2,0.2,0.5,0.3,0.7c0.1-0.5,0.4-1,0.9-1.3c0.2-0.1,0.3-0.1,0.5,0c0.3,0.2,0.5,0.5,0.6,1.1c0,0.3,0,0.6,0,0.9v0.2
		c0,0.3,0,0.6,0.1,0.8c0,0.3,0.2,0.8,0.5,1.2c0.3-0.1,0.6-0.1,0.9,0c0.1,0,0.2,0.1,0.3,0.3c0.1,0.1,0.1,0.3,0,0.4
		c0.2,0,0.4,0.2,0.4,0.5c0,1,0,1.9,0.1,2.9v0.2c0.1,0.1,0.2,0.2,0.2,0.3c0.2,0.3,0.2,0.6,0.2,0.9l-0.1,1.9v0.4V57v1.4
		c0,0.2,0,0.4,0,0.5s0.1,0.2,0.1,0.2c0.1,0.1,0.1,0.2,0.2,0.3c0.2,0.5,0.2,0.9,0.1,1.3v3.4c0,0.4,0,1,0.2,1.2c0.1,0,0.1,0.1,0.1,0.1
		s0,0.1,0.1,0.1v0.1l0,0c0.1,1.4,0,2.9-0.1,4.3c0,0.6-0.1,1.1,0,1.6c0,0.1,0.1,0.2,0.2,0.3c0.1,0.1,0.1,0.3,0.2,0.4
		c0.2,0.5,0.2,1,0.2,1.5c0,0.8,0,1.7-0.1,2.5c0,0.2,0,0.4,0,0.5l0.1,0.1c0.1,0.1,0.1,0.1,0.2,0.3c0.1,0.2,0.2,0.5,0.2,0.7
		c0,0.8,0,1.6-0.2,2.4c-0.1,0.3-0.1,0.7,0,0.8c0.1,0.1,0.2,0.2,0.2,0.3c0.1,0.2,0.2,0.5,0.2,0.6l0.2,0.9c0,0,0,0,0,0.1V83v0.1
		c0,0.1,0.1,0.2,0.1,0.2s0.1-0.1,0.2-0.2l0.2-0.2c0,0,0.1,0,0.1-0.1c0.3-0.2,0.6-0.3,0.9-0.3c0.1,0,0.2,0,0.3,0.1
		c0,0,0.1-0.1,0.2-0.1c0.2-0.1,0.5-0.3,0.8-0.3s0.5,0.1,0.7,0.1c0.1,0,0.3,0.1,0.3,0.1c0.1-0.1,0.1-0.2,0.3-0.3
		c0.3-0.2,0.5-0.1,0.7-0.1c0.6,0.1,1.2,0.1,1.9,0c0.6-0.1,1.5-0.3,2,0.4c0,0,0,0,0,0.1l0.1-0.1l0.1-0.1c0.4-0.4,1.1-0.6,1.9-0.4
		c0.1,0,0.3,0.1,0.4,0.1c0.4,0.1,0.7,0.1,1,0.1c0.2,0,0.3-0.1,0.4-0.1c0.1,0,0.2-0.1,0.4-0.1s0.5-0.1,0.7-0.1l3.6-0.3
		c1.7-0.2,3.4-0.3,5.1-0.4c0.2,0,0.8,0,1.1,0.4c0.1,0.2,0.1,0.4,0.1,0.5s0.2,0.1,0.4,0.1c0.1,0,0.2-0.1,0.3-0.1
		c0.3-0.1,0.7-0.3,1.1-0.2c0.2,0,0.4,0.1,0.6,0.2c0.1,0,0.1,0.1,0.2,0.1c0.3,0.1,0.7,0.1,1.1,0.1c0.4,0,0.8,0,1-0.2l0.1-0.1
		c0.1-0.1,0.3-0.4,0.5-0.5c0.6-0.3,1.2,0.2,1.6,0.5c0,0,0.1,0,0.1,0.1c0.1-0.1,0.2-0.2,0.4-0.2c0.6,0,1.2,0.2,1.8,0.5
		c0.5-0.1,1,0,1.4,0.2c0.7-0.3,1.5-0.5,2.3-0.3h0.1c0.1,0,0.3,0.1,0.3,0c0.1,0,0.3-0.1,0.4-0.2l0.2-0.1c0.5-0.3,1.1-0.4,1.6-0.4
		c0.1,0,0.4,0,0.6,0.2c0.2,0.2,0.2,0.4,0.2,0.5c0,0,0.1,0,0.2,0c0.6,0.1,1.1,0.2,1.5-0.1c0.1-0.1,0.2-0.2,0.3-0.2
		c0.1-0.1,0.2-0.2,0.4-0.3c0.4-0.3,1-0.4,1.4-0.1c0.1,0.1,0.2,0.2,0.2,0.3c0.3,0,0.7,0,1,0.1l0.1-0.1c0.1,0,0.2-0.1,0.3,0
		c0.6-0.1,1.4,0,1.9,0.3c0.1,0,0.1,0.1,0.2,0.1l0.1,0.1c0.1,0,0.3-0.1,0.4-0.2c0.1-0.1,0.2-0.1,0.3-0.1c0.5-0.2,1-0.2,1.5-0.1
		c0.1,0,0.3,0.1,0.4,0.2c0.2,0.1,0.3,0.1,0.4,0.1c0.2,0,0.5-0.1,0.9-0.2s0.8-0.3,1.3-0.2c0.3,0,0.6,0.2,0.9,0.3
		c0.2,0.1,0.4,0.2,0.6,0.2s0.5-0.1,0.8-0.2c0.4-0.1,0.9-0.3,1.4-0.2c0.3,0.1,0.5,0.2,0.8,0.3c0.1,0.1,0.2,0.1,0.3,0.2
		c0.2,0.1,0.3,0.1,0.3,0c0.1-0.2,0.2-0.2,0.4-0.2l13.1-0.1c0.3,0,0.7,0,1,0.1c0.2,0.1,0.4,0.1,0.5,0.2l0.1,0.1
		c0.3,0.2,0.7,0.3,1,0.3c0.5,0.1,1,0.1,1.5,0c0.1,0,0.2,0,0.3,0l0.2-0.1c0.3-0.1,0.6-0.2,0.9-0.2s0.5,0.1,0.8,0.1
		c0.1,0,0.2,0,0.3,0.1c0.8,0.1,1.6-0.2,2.1-0.8c0.1-0.1,0.2-0.2,0.4-0.2c0.2,0,0.3,0,0.4,0.1s0.3,0.2,0.4,0.1c0.2,0,0.4,0.1,0.5,0.2
		s0.4,0.2,0.8,0.1c0.2,0,0.4-0.1,0.6-0.2c0.3-0.1,0.7-0.2,1.1-0.2c0.5,0,1.1,0,1.5,0.4l0.3-0.3c0.2-0.2,0.5-0.2,0.7,0l0.7,0.6
		c0.2,0.1,0.6,0,0.8-0.2c0.1-0.1,0.1-0.1,0.2-0.2s0.3-0.3,0.5-0.5c0.7-0.5,1.5,0,2,0.3c0.3,0.2,0.6,0.4,0.9,0.3
		c0.2,0,0.4-0.1,0.6-0.3c0.2-0.2,0.5-0.3,0.8-0.4c0.7-0.2,1.5-0.1,2.1,0.1l0.2,0.1c0.2,0.1,0.3,0.2,0.5,0.2c0.1,0,0.1,0,0.1,0
		c0-0.2,0.1-0.3,0.2-0.4c0.2-0.1,0.3-0.1,0.5,0c0.5,0.2,0.9,0.4,1.4,0.5c0.7,0.1,1.4,0.1,2.1,0l1.8-0.1c0.4,0,1,0.1,1.3,0.4
		c0,0,0.1,0.1,0.1,0.2c0.1,0,0.3,0,0.4-0.1c0.1,0,0.1-0.1,0.2-0.1c0.3-0.2,0.7-0.5,1.2-0.3c0.2,0.1,0.3,0.2,0.5,0.3l0.1,0.1
		c0.1,0.1,0.3,0,0.6-0.1c0.2-0.1,0.5-0.2,0.8-0.2l0,0c0.2,0,0.4,0,0.5,0.1c0.1,0,0.2,0.1,0.3,0.1c0.3,0,0.5-0.1,0.8-0.2
		c0.2-0.1,0.4-0.2,0.6-0.2c1-0.3,2.1,0,2.8,0.7c0.8-0.3,1.6-0.2,2.4,0.1c0.1,0,0.2,0.1,0.3,0.2c0.1,0,0.1,0.1,0.2,0.1h0.1
		c0.1,0,0.2,0.1,0.2,0.1c0.3,0.1,0.6,0.1,0.9,0.1h2c0.2,0,0.5,0,0.7-0.1c0.1,0,0.2-0.1,0.3-0.1c0.1,0,0.1-0.1,0.1-0.1l0,0
		c0-0.2,0-0.3,0.2-0.5c0.4-0.5,1-0.2,1.1-0.1c0,0,0.1,0,0.1,0.1l0.1-0.1c0,0,0-0.1,0.1-0.1v-0.1c0-0.2,0.2-0.3,0.3-0.3
		c0.1,0,0.2,0,0.2,0s0,0,0.1,0c0.2,0,0.4,0.1,0.5,0.2C297.3,82.1,297.2,82.4,297.1,82.6z"/>
	<path class="st4" d="M402.8,83.2c0,0-0.1-0.1-0.2-0.1s-0.1,0-0.2,0l0,0c0,0-0.1,0-0.2-0.1l0,0c-0.2-0.1-0.6-0.2-1-0.1h-0.1
		c0,0-0.1-0.1-0.2-0.1c-0.2,0-0.3,0-0.4,0.1c0,0,0,0.1-0.1,0.1c0,0-0.1,0-0.2,0s-0.1,0-0.1-0.1l0,0c-0.2-0.1-0.5-0.2-0.8-0.2l0,0
		c-0.3,0-0.6,0.1-0.8,0.3c0,0-0.1,0-0.1,0.1c-0.1,0-0.1,0-0.2-0.1c-0.2-0.1-0.4-0.1-0.6,0h-0.1h-0.1c0,0,0,0-0.1,0l0,0
		c-0.2-0.1-0.3,0-0.4,0s-0.2,0.1-0.3,0.1h-0.1c0,0-0.2,0-0.3,0h-0.1c-0.1,0-0.2-0.1-0.3-0.1c-0.1,0-0.3-0.1-0.4-0.1
		c-0.2,0-0.4,0-0.5,0.1c-0.1,0-0.2,0.1-0.3,0.1l0,0c-0.1,0-0.2,0.1-0.2,0.1c-0.1,0-0.1,0-0.2,0s-0.2,0-0.3,0c-0.1,0-0.1-0.1-0.2-0.1
		l0,0c-0.1,0-0.2-0.1-0.3-0.1c0,0,0,0-0.1,0c-0.2-0.1-0.4,0-0.6,0s-0.4,0-0.7,0c-0.4-0.1-0.9-0.1-1.4,0.1l0,0h-0.1h-0.1
		c-0.1,0-0.3,0-0.4-0.1h-0.1c-0.2,0-0.4-0.1-0.7-0.1c-0.6,0-1.2,0-1.8,0.1c0,0,0,0-0.1,0s-0.2,0-0.2,0l0,0l-0.1-0.1
		c-0.3-0.2-0.8-0.2-1.2,0l-0.2,0.1c0,0-0.1,0-0.1,0.1c-0.1,0-0.1,0-0.2,0.1c0,0-0.1,0-0.2,0c0,0-0.1,0-0.2,0s-0.3,0-0.4,0l-1.8-0.2
		c-0.1,0-0.2,0-0.4,0c-0.1,0-0.2,0.1-0.3,0.2c0,0,0,0-0.1,0.1c0,0-0.1,0-0.2,0c0,0,0,0-0.1,0s-0.1,0-0.2,0c-0.3-0.1-0.6,0-0.9,0
		c-0.2,0-0.4,0-0.6,0c0,0-0.1,0-0.2-0.1s-0.3-0.1-0.5-0.2c-0.4,0-0.6,0.1-0.9,0.2c0,0-0.1,0-0.1,0.1c-0.1,0-0.1,0-0.1,0.1
		c-0.1,0-0.2,0-0.3,0h-1.5c-0.6,0-1.2,0-1.8-0.1c-0.3,0-0.6-0.1-0.8-0.2c-0.2,0-0.4-0.1-0.6-0.1c-0.3,0-0.6,0.1-0.8,0.2h-0.1l0,0
		c-0.1,0-0.2,0.1-0.4,0.1c-0.2,0-0.3,0.1-0.5,0.1c-0.1,0-0.2,0-0.3,0h-0.1l0,0l-0.1-0.1c-0.1,0-0.1-0.1-0.2-0.1
		c-0.3-0.2-0.6-0.2-0.9-0.3h-0.1c-0.1,0-0.3,0.1-0.4,0.2c-0.1,0-0.3-0.1-0.5-0.1s-0.4,0.1-0.5,0.2c0,0,0,0-0.1,0l-0.1,0.1
		c0,0,0,0-0.1,0s-0.2,0-0.3,0l0,0l-0.1-0.1c0,0,0,0-0.1,0c-0.1-0.1-0.2-0.2-0.4-0.2c-0.3-0.1-0.5,0-0.7,0h-0.1c-0.2,0-0.5,0-0.7,0
		c-0.4,0-0.8,0-1.3,0.1h-0.1c-0.1,0-0.2,0.1-0.3,0.1l0,0c-0.1,0-0.2,0.1-0.3,0.1c-0.2,0.1-0.4,0.1-0.6,0c-0.1,0-0.2-0.1-0.3-0.1
		c0,0-0.1,0-0.1-0.1c0,0-0.1,0-0.1-0.1c-0.1-0.1-0.2-0.1-0.3-0.2c-0.3-0.1-0.5,0-0.7,0l-0.8,0.2c-0.1,0-0.2,0-0.3,0
		c-0.1-0.1-0.2-0.1-0.4-0.1c-0.2,0-0.3,0-0.4,0.1c0,0-0.1-0.1-0.2-0.1c-0.2-0.1-0.4-0.2-0.7-0.2c-0.3,0-0.6,0.1-0.7,0.2
		c-0.1,0-0.1,0.1-0.2,0.1c-0.2,0.1-0.4,0-0.7-0.1c-0.1,0-0.2-0.1-0.3-0.1c-0.8-0.2-1.6-0.1-2.3-0.1l-2.6,0.3h-0.1
		c-0.5,0.1-0.9,0.1-1.4,0c-0.2,0-0.3,0-0.5-0.1h-0.2c-0.3-0.1-0.9-0.3-1.3,0.1h-0.1c-0.1,0-0.1,0-0.2-0.1c-0.2-0.1-0.3-0.1-0.6-0.2
		c-0.4,0-0.7,0.1-1,0.2c-0.1,0-0.2,0.1-0.3,0.1l0,0c-0.2,0.1-0.4,0.1-0.6,0c-0.2,0-0.3-0.1-0.4-0.2s-0.2-0.1-0.4-0.1l-1.8,0.2
		c-0.2,0-0.2,0.1-0.3,0.2v0.1l0,0l0,0h-0.1l-0.1-0.1l0,0c-0.6-0.4-1.3-0.3-1.8-0.3c-1,0.1-2,0.2-3,0.2h-0.2l-0.1-0.1
		c-0.1,0-0.1-0.1-0.1-0.2c-0.2-0.2-0.5-0.3-0.8-0.3l0,0c-0.1-0.2-0.3-0.6-1-0.6c-0.8,0-1.6,0.2-2.4,0.8c-0.1,0-0.2,0-0.3,0
		c-0.3,0-0.6,0.2-0.7,0.3l-0.1,0.1c0,0,0,0-0.1,0s-0.2,0-0.3,0c-0.1,0-0.1,0-0.2,0c-0.3-0.1-0.6-0.1-1,0h-0.1
		c-0.1,0-0.2,0.1-0.3,0.1l0,0c-0.1,0-0.2,0.1-0.2,0.1h-0.1c0,0,0,0-0.1,0h-0.1c-0.1,0-0.2,0.1-0.3,0.2c0,0.1-0.1,0.1-0.1,0.1
		c-0.2,0-0.5-0.1-0.7-0.1c0-0.1-0.1-0.2-0.2-0.3l0,0c0,0,0-0.1-0.1-0.1l-0.1-0.1l-0.1-0.1c0,0,0-0.2,0.1-0.4c0.1-0.3,0.2-0.6,0.1-1
		c-0.1-0.2-0.2-0.3-0.2-0.5l-0.1-0.1c-0.4-0.5-0.3-1.3-0.2-2.1c0-0.2,0-0.4,0.1-0.6c0-0.3,0-0.8-0.2-1.1c0-0.1-0.1-0.1-0.1-0.2
		l-0.1-0.1v-0.2l-0.2-8c0-0.2-0.1-0.4-0.3-0.5c0.1-0.8,0-1.6,0-2.4v-0.1v-0.1c0-0.7-0.1-1.4,0-2l0.4-2.6c0-0.2,0.1-0.6-0.1-0.9
		c-0.1-0.1-0.2-0.2-0.2-0.3c0,0,0-0.1-0.1-0.1c-0.1-0.1-0.1-0.4-0.1-0.7v-2v-0.4v-0.3v-3c0-0.3,0-0.6-0.1-1c0-0.1-0.1-0.3-0.1-0.4
		s-0.1-0.1-0.1-0.2c-0.2-0.6,0-1.3,0.1-2v-0.1c0.1-0.5,0.2-1.2-0.1-1.9c-0.1-0.2-0.1-0.3-0.2-0.4s-0.1-0.2-0.1-0.2v-0.1v-0.1
		c0-0.3-0.1-0.7-0.4-0.9c-0.2-0.2-0.4-0.2-0.7-0.2c-0.2,0-0.5,0.2-0.6,0.7c0,0.1-0.1,0.3-0.1,0.4v0.1v0.1c0,0.1,0,0.2,0,0.4
		c0,0.2,0,0.3,0,0.5c0,0-0.1,0-0.2,0c-0.2,0-0.3,0.1-0.4,0.2s-0.1,0.3-0.1,0.5c0,0.1,0.1,0.3,0.1,0.4c-0.3,0-0.5,0.1-0.7,0.3
		c-0.1-0.5-0.3-0.9-0.4-1.3c-0.1-0.3-0.2-0.6-0.3-1v-0.1v-0.1c0-0.1,0-0.2,0-0.3c0-0.2,0-0.4,0-0.5c0-0.2,0-0.4,0-0.5
		c0-0.8-0.3-1.6-0.5-2.2c0-0.1-0.2-0.4-0.5-0.5c-0.2-0.1-0.3-0.1-0.5,0c-0.1,0.1-0.3,0.2-0.3,0.4v0.1l0,0c-0.2,0-0.4,0-0.6,0.2
		c-0.1,0-0.1,0.1-0.2,0.1c-0.2-0.1-0.5-0.3-0.9-0.1c-0.3,0.2-0.3,0.5-0.3,0.6c-0.1,1-0.1,1.9-0.1,2.9v0.2l0,0
		c-0.2,0.2-0.3,0.5-0.3,0.8c0,0.4,0,0.8-0.1,1.1c0,0.8-0.1,1.5,0,2.3v0.5c-0.3,0.1-0.5,0.4-0.6,0.7c-0.1,0.4-0.1,0.8,0,1.1
		c0.1,0.9,0.2,1.9,0.2,2.8c0,0.1,0,0.2,0,0.4c0,0.1,0,0.2,0,0.4c0,0.5,0,1,0,1.5c-0.1,0-0.2,0.1-0.2,0.2c-0.2,0.2-0.2,0.5-0.2,0.7
		c-0.1,2.3,0,4.2,0.2,6.3V66v0.1c0,0.5,0.1,0.9,0.1,1.4l0,0v0.1v0.1c-0.1,0-0.3,0.2-0.4,0.4c-0.2,0.4-0.2,0.8-0.2,1.1l0.1,3.3
		c0,0.3,0,0.6,0,0.8c0,0.1-0.1,0.3-0.2,0.4c0,0.1-0.1,0.2-0.1,0.2c-0.4,1.2-0.2,2.5-0.1,3.6c0.1,0.4,0.1,0.8,0,1l-0.1,0.1
		c-0.1,0.1-0.2,0.2-0.2,0.4c-0.1,0.2-0.1,0.5-0.1,0.7l-0.1,3.6c-0.1,0-0.2,0-0.2-0.1c-0.4-0.1-0.7,0.1-1,0.2h-0.1
		c-0.1,0-0.1,0.1-0.2,0.1c-0.1,0.1-0.2,0.1-0.3,0.1c-0.1,0-0.1,0-0.2-0.1c0,0-0.1,0-0.2-0.1h-0.1c-0.3-0.2-0.6-0.3-1.1-0.2
		c-0.1,0-0.2,0.1-0.3,0.2c-0.1,0-0.1,0.1-0.2,0.1l-0.1,0.1c-0.1,0.1-0.1,0.1-0.1,0.2l-0.1,0.1l0,0c0,0,0-0.1-0.1-0.1
		c-0.1-0.1-0.2-0.2-0.3-0.2c-0.3-0.1-0.7-0.1-0.9,0h-0.1c-0.2,0-0.3,0-0.5,0s-0.4-0.1-0.6-0.1c-0.1,0-0.1,0-0.2,0s-0.2,0-0.3-0.1
		h-0.1c-0.3-0.1-0.9-0.2-1.3,0c-0.1,0-0.1,0-0.2,0.1l0,0c-0.1,0-0.1,0.1-0.2,0.1l-0.1,0.1c0,0-0.1,0.1-0.2,0.1
		c-0.1-0.1-0.3-0.2-0.5-0.1c0,0,0,0-0.1,0c-0.2,0.1-0.3,0.4-0.2,0.7c0.1,0.1,0.1,0.2,0.2,0.2c0.1,0.1,0.2,0.1,0.3,0.1
		c0.3,0.1,0.5,0,0.8-0.2c0.1-0.1,0.2-0.2,0.3-0.3c0.1-0.1,0.1-0.1,0.2-0.2s0.4-0.1,0.7,0c0.1,0,0.2,0.1,0.4,0.1
		c0.5,0.1,1.1,0.3,1.7,0.2h0.1c0.1,0,0.2-0.1,0.3,0c0,0.1,0.1,0.2,0.2,0.2c0.2,0.2,0.4,0.2,0.6,0.2c0.3,0,0.6-0.3,0.8-0.5
		c0-0.1,0.1-0.1,0.1-0.2c0.1-0.1,0.1-0.2,0.2-0.2c0,0,0.2,0.1,0.3,0.1c0.2,0.1,0.4,0.2,0.7,0.3c0.4,0,0.8-0.1,1.1-0.3
		c0.2-0.1,0.4-0.2,0.5-0.2s0.1,0,0.2,0c0.2,0.1,0.6,0.2,1-0.1c0.2-0.1,0.2-0.3,0.3-0.5V83v-0.1v-0.1l0.1-3.6c0-0.1,0-0.2,0-0.3
		l0.1-0.1c0-0.1,0.1-0.1,0.1-0.2c0.4-0.6,0.3-1.2,0.2-1.7c-0.1-1-0.3-2.1,0-3.1l0.1-0.2c0.1-0.2,0.1-0.4,0.2-0.5
		c0.1-0.4,0.1-0.8,0.1-1.1l-0.1-3.2c0-0.2,0-0.4,0-0.6c0.2-0.1,0.3-0.2,0.5-0.5l0,0c0-0.1,0-0.2,0-0.3v-0.1c0-0.1,0-0.2,0-0.4
		c0-0.4-0.1-0.9-0.1-1.3v-0.1v-0.1c-0.2-2-0.3-3.9-0.2-6.2c0.1,0,0.2-0.1,0.2-0.2c0.2-0.2,0.2-0.5,0.2-0.7c0-0.5,0-1,0-1.5
		c0-0.1,0-0.2,0-0.4c0-0.1,0-0.2,0-0.4c0-1-0.1-2-0.2-2.9c0-0.2-0.1-0.5,0-0.6c0,0,0.1-0.1,0-0.1c0.2,0,0.3,0,0.5-0.1
		c0.1-0.1,0.2-0.3,0.2-0.4l-0.1-0.9c0-0.7,0-1.4,0-2.2c0-0.4,0-0.7,0.1-1.1h0.1c0.2-0.1,0.3-0.3,0.3-0.5c0-0.1,0-0.2,0-0.3v-0.2
		c0-0.8,0-1.6,0-2.4c0.1,0,0.1,0,0.2,0c0.3,0,0.6-0.2,0.7-0.4c0,0,0.1,0,0.2,0s0.2,0,0.3,0h0.1c0.2,0.5,0.3,1,0.3,1.4
		c0,0.2,0,0.3,0,0.5s0,0.4,0,0.7c0,0.1,0,0.2,0,0.3v0.1V47c0.1,0.5,0.2,0.9,0.4,1.3c0.3,0.7,0.5,1.3,0.4,1.9c0,0.1,0,0.2,0,0.3
		c0.1,0.2,0.3,0.4,0.5,0.4c0.3,0.1,0.6,0,0.8-0.3c0.2-0.2,0.2-0.4,0.3-0.5V50c0.5,0.2,0.8,0,0.9-0.2c0,0,0.1-0.1,0.1-0.2
		c0-0.2,0.1-0.5,0-0.8c0.4-0.1,0.6-0.4,0.6-0.6c0.1-0.2,0-0.4,0-0.6c0-0.1,0-0.2,0-0.2c0,0.1,0.1,0.2,0.2,0.3c0,0.1,0.1,0.2,0.1,0.3
		c0.2,0.4,0.2,0.7,0,1.3v0.1c-0.2,0.8-0.4,1.7-0.1,2.5c0,0.1,0.1,0.2,0.1,0.3c0,0.1,0.1,0.2,0.1,0.3c0.1,0.2,0.1,0.4,0,0.7v3v0.4V57
		v2c0,0.3,0,0.9,0.3,1.3c0,0.1,0.1,0.1,0.1,0.2l0.1,0.1c0,0,0,0.2,0,0.3l-0.4,2.6c-0.1,0.7-0.1,1.4,0,2.2v0.1v0.1c0,0,0,0,0,0.1
		c0.1,0.9,0.1,1.8,0,2.5c0,0.2,0,0.3,0.1,0.4s0.2,0.2,0.2,0.2l0.2,7.6c0,0.2,0,0.4,0.1,0.6c0.1,0.1,0.1,0.2,0.2,0.3
		c0,0,0,0.1,0.1,0.1c0.1,0.1,0.1,0.4,0,0.6c0,0.2,0,0.4-0.1,0.6c-0.1,0.9-0.2,1.9,0.3,2.7l0.1,0.1c0,0.1,0.1,0.1,0.1,0.2
		s0,0.2-0.1,0.4c-0.1,0.2-0.1,0.5-0.1,0.8v0.1v0.1c0,0,0,0.1,0.1,0.1c0.1,0.2,0.2,0.3,0.3,0.4l0,0c-0.1,0.1-0.1,0.2,0,0.4
		c0.1,0.2,0.2,0.4,0.5,0.4c0.5,0,0.9,0,1.4,0.1h0.1c0.2,0,0.3-0.1,0.4-0.3l0.1-0.1c0.3,0,0.5-0.1,0.7-0.2c0.1,0,0.2-0.1,0.3-0.1
		c0.1,0,0.3,0,0.6,0c0.3,0.1,0.8,0.1,1.2-0.1c0.1,0,0.2-0.1,0.3-0.2c0,0,0.1-0.1,0.2-0.1s0.2,0,0.4,0c0.2,0,0.4-0.2,0.5-0.3
		c0.1,0,0.1-0.1,0.2-0.1s0.1-0.1,0.2-0.1s0.2-0.1,0.3-0.1c0.3-0.1,0.7-0.2,1-0.2c0.1,0,0.1,0,0.1,0s0,0.1,0,0.2l0,0c0,0,0,0,0,0.1
		v0.1c0.2,0.3,0.5,0.4,0.8,0.4c0.1,0,0.2-0.1,0.3-0.1c0.1,0.1,0.2,0.2,0.4,0.3c0.3,0.1,0.5,0.1,0.7,0.1c1,0,2-0.1,3.1-0.2
		c0.5,0,0.9-0.1,1.2,0.2c0.1,0.1,0.2,0.2,0.3,0.2c0.2,0.1,0.5,0.1,0.8,0c0.1-0.1,0.2-0.1,0.3-0.2l1.4-0.1c0.5,0.4,1.2,0.5,1.8,0.3
		c0.1,0,0.3-0.1,0.4-0.1c0.2-0.1,0.4-0.2,0.5-0.1c0.1,0,0.2,0,0.3,0.1c0.1,0,0.2,0.1,0.2,0.1c0.4,0.2,0.8,0.1,1.1-0.1
		c0.1,0,0.3,0,0.4,0.1l0.2,0.1c0.8,0.2,1.6,0.3,2.3,0.1l2.6-0.3c0.7-0.1,1.4-0.1,2,0l0.2,0.1c0.4,0.1,0.9,0.3,1.4,0.1
		c0.1,0,0.2-0.1,0.3-0.2c0.1,0,0.1-0.1,0.2-0.1c0,0,0.1,0.1,0.2,0.1c0.2,0.1,0.5,0.3,0.9,0.2c0.1,0,0.1,0,0.2-0.1c0,0,0.1,0,0.1,0.1
		c0.3,0.2,0.7,0.1,0.9,0l0.7-0.2c0.1,0,0.2,0,0.2,0l0.1,0.1l0.1,0.1c0.5,0.4,1.2,0.5,1.8,0.3c0.1,0,0.3-0.1,0.4-0.2
		c0.1,0,0.2-0.1,0.3-0.1c0.3-0.1,0.6-0.1,0.9-0.1s0.6,0,0.8,0h0.1c0.1,0,0.2,0,0.3,0c0.1,0,0.1,0.1,0.2,0.1c0.1,0.1,0.2,0.1,0.3,0.2
		c0.4,0.2,0.9,0.2,1.3-0.1c0.1,0,0.1-0.1,0.2-0.1l0.1-0.1h0.1c0.1,0,0.1,0.1,0.2,0.1c0.2,0.1,0.5,0,0.7-0.1c0.2,0,0.4,0.1,0.6,0.3
		c0.1,0.1,0.2,0.2,0.4,0.2c0.2,0,0.3,0,0.4,0c0.5,0,1-0.2,1.5-0.4h0.1c0.2-0.1,0.3-0.1,0.4-0.1s0.2,0,0.4,0.1
		c0.9,0.2,1.9,0.2,2.8,0.2h1.5c0.2,0,0.4,0,0.6-0.1s0.3-0.1,0.5-0.2c0.1-0.1,0.2-0.1,0.3-0.1c0,0,0.1,0,0.2,0.1
		c0.1,0,0.2,0.1,0.3,0.1c0.3,0.1,0.7,0.1,1,0c0.2,0,0.4,0,0.5,0c0,0,0.1,0,0.2,0.1c0.2,0.1,0.7,0.2,1.1-0.1l0.1-0.1l1.7,0.2
		c0.2,0,0.3,0,0.5,0.1c0.1,0,0.3,0,0.4,0c0.3,0,0.5-0.1,0.7-0.2l0.1-0.1c0.1-0.1,0.2-0.1,0.2,0c0.1,0,0.1,0.1,0.2,0.2
		c0.3,0.2,0.7,0.1,0.9,0.1c0.5-0.1,1.1-0.1,1.7-0.1c0.2,0,0.3,0,0.5,0.1c0.2,0,0.4,0.1,0.6,0.1c0.1,0,0.3,0,0.5,0
		c0.1,0,0.2-0.1,0.3-0.1c0.2-0.1,0.6-0.1,0.9,0c0.3,0,0.6,0.1,0.9,0.1h0.1c0,0,0.1,0,0.2,0c0,0,0.1,0,0.2,0.1
		c0.4,0.2,0.8,0.3,1.1,0.2c0.3,0,0.5-0.1,0.7-0.2s0.4-0.2,0.5-0.2s0.2,0.1,0.4,0.1c0.3,0.1,0.8,0.3,1.2,0c0,0,0,0,0.1,0
		c0.3,0.1,0.5,0,0.8-0.1c0,0,0.1,0,0.3,0.2c0.2,0.1,0.4,0.1,0.6,0c0.1-0.1,0.3-0.3,0.5-0.3c0.1,0,0.2,0.1,0.3,0.1
		c0.1,0,0.2,0.1,0.3,0.1c0.3,0.1,0.7,0.2,1,0c0.1,0,0.3,0,0.4,0s0.2-0.1,0.3-0.2c0,0,0.2,0,0.2,0.1c0.2,0.1,0.4,0.2,0.7,0.2
		c0.3,0,0.5-0.2,0.5-0.5C403,83.3,402.9,83.2,402.8,83.2z"/>
	<path class="st1" d="M297.2,81.9c0.1,0.2,0.1,0.5-0.1,0.7c-0.1,0.1-0.2,0.1-0.3,0.2l0,0c0,0,0,0.1-0.1,0.1l-0.1,0.1l-0.1,0.1
		c0,0-0.1,0.1-0.2,0.1v-1.6c0.1,0,0.2,0,0.2,0s0,0,0.1,0C296.8,81.6,297.1,81.7,297.2,81.9z"/>
	<path class="st1" d="M305.9,83.3v1c-0.1-0.1-0.2-0.1-0.2-0.2C305.5,83.8,305.6,83.5,305.9,83.3C305.8,83.4,305.8,83.3,305.9,83.3z"
		/>
</g>
<text transform="matrix(1 0 0 1 18.1 40.306)" class="st5 st6 st3">4</text>
<text transform="matrix(1 0 0 1 168.0498 40.306)" class="st5 st6 st3">4</text>
<text transform="matrix(1 0 0 1 79.5211 77.1544)" class="st5 st6 st3">5</text>
<text transform="matrix(1 0 0 1 227.2182 77.1544)" class="st5 st6 st3">5</text>
<text transform="matrix(1 0 0 1 374.1962 77.1544)" class="st5 st6 st7">1</text>
<text transform="matrix(1 0 0 1 368.885 51.7095)" class="st5 st6 st7">2</text>
<text transform="matrix(1 0 0 1 368.885 23.1778)" class="st5 st6 st7">3</text>
</svg>
